<?xml version="1.0" encoding="UTF-8" standalone="no"?>
<!DOCTYPE svg PUBLIC "-//W3C//DTD SVG 1.1//EN"
 "http://www.w3.org/Graphics/SVG/1.1/DTD/svg11.dtd">
<!-- Generated by graphviz version 9.0.0 (0)
 -->
<!-- Title: NFA Pages: 1 -->
<svg width="838pt" height="845pt"
 viewBox="0.00 0.00 838.25 845.00" xmlns="http://www.w3.org/2000/svg" xmlns:xlink="http://www.w3.org/1999/xlink">
<g id="graph0" class="graph" transform="scale(1 1) rotate(0) translate(4 841)">
<title>NFA</title>
<polygon fill="white" stroke="none" points="-4,4 -4,-841 834.25,-841 834.25,4 -4,4"/>
<!-- n0 -->
<g id="node1" class="node">
<title>n0</title>
<ellipse fill="none" stroke="black" cx="303.95" cy="-113.22" rx="18" ry="18"/>
<text text-anchor="middle" x="303.95" y="-108.54" font-family="Times,serif" font-size="14.00">0</text>
</g>
<!-- n0&#45;&gt;n0 -->
<g id="edge1" class="edge">
<title>n0&#45;&gt;n0</title>
<path fill="none" stroke="black" d="M320.99,-119.59C330.81,-120.9 339.95,-118.77 339.95,-113.22 339.95,-110 336.89,-107.94 332.42,-107.02"/>
<polygon fill="black" stroke="black" points="332.56,-103.52 322.5,-106.86 332.44,-110.52 332.56,-103.52"/>
<text text-anchor="middle" x="344.08" y="-108.54" font-family="Times,serif" font-size="14.00">e</text>
</g>
<!-- n18 -->
<g id="node2" class="node">
<title>n18</title>
<ellipse fill="none" stroke="black" cx="443.19" cy="-27.85" rx="23.85" ry="23.85"/>
<text text-anchor="middle" x="443.19" y="-23.18" font-family="Times,serif" font-size="14.00">18</text>
</g>
<!-- n0&#45;&gt;n18 -->
<g id="edge2" class="edge">
<title>n0&#45;&gt;n18</title>
<path fill="none" stroke="black" d="M319.65,-103.59C342.3,-89.7 384.57,-63.79 413.29,-46.18"/>
<polygon fill="black" stroke="black" points="414.84,-49.34 421.54,-41.13 411.18,-43.37 414.84,-49.34"/>
<text text-anchor="middle" x="363.84" y="-78.84" font-family="Times,serif" font-size="14.00">f</text>
</g>
<!-- n25 -->
<g id="node20" class="node">
<title>n25</title>
<ellipse fill="none" stroke="black" cx="607.14" cy="-27.85" rx="23.85" ry="23.85"/>
<ellipse fill="none" stroke="black" cx="607.14" cy="-27.85" rx="27.85" ry="27.85"/>
<text text-anchor="middle" x="607.14" y="-23.18" font-family="Times,serif" font-size="14.00">25</text>
</g>
<!-- n18&#45;&gt;n25 -->
<g id="edge12" class="edge">
<title>n18&#45;&gt;n25</title>
<path fill="none" stroke="black" d="M467.38,-27.85C493.76,-27.85 536.39,-27.85 567.64,-27.85"/>
<polygon fill="black" stroke="black" points="567.49,-31.35 577.49,-27.85 567.49,-24.35 567.49,-31.35"/>
<text text-anchor="middle" x="513.76" y="-31.8" font-family="Times,serif" font-size="14.00">ε</text>
</g>
<!-- n1 -->
<g id="node3" class="node">
<title>n1</title>
<ellipse fill="none" stroke="black" cx="443" cy="-443" rx="18" ry="18"/>
<text text-anchor="middle" x="443" y="-438.32" font-family="Times,serif" font-size="14.00">1</text>
</g>
<!-- n2 -->
<g id="node4" class="node">
<title>n2</title>
<ellipse fill="none" stroke="black" cx="232.67" cy="-571.57" rx="18" ry="18"/>
<text text-anchor="middle" x="232.67" y="-566.9" font-family="Times,serif" font-size="14.00">2</text>
</g>
<!-- n6 -->
<g id="node5" class="node">
<title>n6</title>
<ellipse fill="none" stroke="black" cx="178.55" cy="-399.02" rx="18" ry="18"/>
<text text-anchor="middle" x="178.55" y="-394.34" font-family="Times,serif" font-size="14.00">6</text>
</g>
<!-- n2&#45;&gt;n6 -->
<g id="edge3" class="edge">
<title>n2&#45;&gt;n6</title>
<path fill="none" stroke="black" d="M231.33,-553.13C224.85,-522.38 205.78,-460.61 192.16,-425.31"/>
<polygon fill="black" stroke="black" points="195.5,-424.23 188.52,-416.26 189.01,-426.84 195.5,-424.23"/>
<text text-anchor="middle" x="208" y="-493.17" font-family="Times,serif" font-size="14.00">ε</text>
</g>
<!-- n4 -->
<g id="node6" class="node">
<title>n4</title>
<ellipse fill="none" stroke="black" cx="74.38" cy="-571.57" rx="18" ry="18"/>
<text text-anchor="middle" x="74.38" y="-566.9" font-family="Times,serif" font-size="14.00">4</text>
</g>
<!-- n2&#45;&gt;n4 -->
<g id="edge4" class="edge">
<title>n2&#45;&gt;n4</title>
<path fill="none" stroke="black" d="M214.2,-571.57C187.16,-571.57 136.49,-571.57 104.14,-571.57"/>
<polygon fill="black" stroke="black" points="104.25,-568.07 94.25,-571.57 104.25,-575.07 104.25,-568.07"/>
<text text-anchor="middle" x="155.05" y="-575.52" font-family="Times,serif" font-size="14.00">a</text>
</g>
<!-- n6&#45;&gt;n2 -->
<g id="edge7" class="edge">
<title>n6&#45;&gt;n2</title>
<path fill="none" stroke="black" d="M179.89,-417.46C186.37,-448.21 205.43,-509.98 219.05,-545.28"/>
<polygon fill="black" stroke="black" points="215.72,-546.36 222.7,-554.33 222.21,-543.75 215.72,-546.36"/>
<text text-anchor="middle" x="195.72" y="-485.32" font-family="Times,serif" font-size="14.00">ε</text>
</g>
<!-- n14 -->
<g id="node9" class="node">
<title>n14</title>
<ellipse fill="none" stroke="black" cx="206.2" cy="-235.94" rx="23.85" ry="23.85"/>
<text text-anchor="middle" x="206.2" y="-231.27" font-family="Times,serif" font-size="14.00">14</text>
</g>
<!-- n6&#45;&gt;n14 -->
<g id="edge8" class="edge">
<title>n6&#45;&gt;n14</title>
<path fill="none" stroke="black" d="M181.61,-380.94C186.09,-354.53 194.51,-304.88 200.24,-271.12"/>
<polygon fill="black" stroke="black" points="203.67,-271.84 201.89,-261.39 196.77,-270.67 203.67,-271.84"/>
<text text-anchor="middle" x="186.43" y="-329.98" font-family="Times,serif" font-size="14.00">d</text>
</g>
<!-- n3 -->
<g id="node7" class="node">
<title>n3</title>
<ellipse fill="none" stroke="black" cx="18" cy="-431.83" rx="18" ry="18"/>
<text text-anchor="middle" x="18" y="-427.15" font-family="Times,serif" font-size="14.00">3</text>
</g>
<!-- n4&#45;&gt;n3 -->
<g id="edge6" class="edge">
<title>n4&#45;&gt;n3</title>
<path fill="none" stroke="black" d="M67.47,-554.44C57.87,-530.63 40.38,-487.3 28.98,-459.04"/>
<polygon fill="black" stroke="black" points="32.35,-458.04 25.36,-450.07 25.86,-460.66 32.35,-458.04"/>
<text text-anchor="middle" x="43.73" y="-510.69" font-family="Times,serif" font-size="14.00">b</text>
</g>
<!-- n3&#45;&gt;n6 -->
<g id="edge5" class="edge">
<title>n3&#45;&gt;n6</title>
<path fill="none" stroke="black" d="M36.1,-428.13C63.71,-422.49 116.6,-411.68 149.59,-404.94"/>
<polygon fill="black" stroke="black" points="150.18,-408.39 159.27,-402.96 148.77,-401.53 150.18,-408.39"/>
<text text-anchor="middle" x="89.1" y="-420.48" font-family="Times,serif" font-size="14.00">c</text>
</g>
<!-- n5 -->
<g id="node8" class="node">
<title>n5</title>
<ellipse fill="none" stroke="black" cx="443" cy="-368" rx="18" ry="18"/>
<text text-anchor="middle" x="443" y="-363.32" font-family="Times,serif" font-size="14.00">5</text>
</g>
<!-- n14&#45;&gt;n0 -->
<g id="edge11" class="edge">
<title>n14&#45;&gt;n0</title>
<path fill="none" stroke="black" d="M221.26,-217.03C238.58,-195.29 267.02,-159.59 285.61,-136.24"/>
<polygon fill="black" stroke="black" points="288.25,-138.55 291.74,-128.54 282.77,-134.19 288.25,-138.55"/>
<text text-anchor="middle" x="249.69" y="-180.59" font-family="Times,serif" font-size="14.00">ε</text>
</g>
<!-- n7 -->
<g id="node10" class="node">
<title>n7</title>
<ellipse fill="none" stroke="black" cx="518" cy="-368" rx="18" ry="18"/>
<text text-anchor="middle" x="518" y="-363.32" font-family="Times,serif" font-size="14.00">7</text>
</g>
<!-- n8 -->
<g id="node11" class="node">
<title>n8</title>
<ellipse fill="none" stroke="black" cx="518" cy="-443" rx="18" ry="18"/>
<text text-anchor="middle" x="518" y="-438.32" font-family="Times,serif" font-size="14.00">8</text>
</g>
<!-- n9 -->
<g id="node12" class="node">
<title>n9</title>
<ellipse fill="none" stroke="black" cx="378.83" cy="-640.26" rx="18" ry="18"/>
<text text-anchor="middle" x="378.83" y="-635.58" font-family="Times,serif" font-size="14.00">9</text>
</g>
<!-- n9&#45;&gt;n2 -->
<g id="edge9" class="edge">
<title>n9&#45;&gt;n2</title>
<path fill="none" stroke="black" d="M362.35,-632.51C337.34,-620.76 289.57,-598.31 259.51,-584.19"/>
<polygon fill="black" stroke="black" points="261.22,-581.12 250.68,-580.04 258.25,-587.46 261.22,-581.12"/>
<text text-anchor="middle" x="307.18" y="-612.3" font-family="Times,serif" font-size="14.00">ε</text>
</g>
<!-- n9&#45;&gt;n9 -->
<g id="edge10" class="edge">
<title>n9&#45;&gt;n9</title>
<path fill="none" stroke="black" d="M395.86,-646.64C405.69,-647.94 414.83,-645.81 414.83,-640.26 414.83,-637.05 411.77,-634.98 407.3,-634.06"/>
<polygon fill="black" stroke="black" points="407.43,-630.56 397.38,-633.9 407.32,-637.56 407.43,-630.56"/>
<text text-anchor="middle" x="420.83" y="-635.58" font-family="Times,serif" font-size="14.00">w</text>
</g>
<!-- n10 -->
<g id="node13" class="node">
<title>n10</title>
<ellipse fill="none" stroke="black" cx="523.85" cy="-523.85" rx="23.85" ry="23.85"/>
<text text-anchor="middle" x="523.85" y="-519.18" font-family="Times,serif" font-size="14.00">10</text>
</g>
<!-- n11 -->
<g id="node14" class="node">
<title>n11</title>
<ellipse fill="none" stroke="black" cx="423.85" cy="-523.85" rx="23.85" ry="23.85"/>
<text text-anchor="middle" x="423.85" y="-519.18" font-family="Times,serif" font-size="14.00">11</text>
</g>
<!-- n12 -->
<g id="node15" class="node">
<title>n12</title>
<ellipse fill="none" stroke="black" cx="348.85" cy="-423.85" rx="23.85" ry="23.85"/>
<text text-anchor="middle" x="348.85" y="-419.18" font-family="Times,serif" font-size="14.00">12</text>
</g>
<!-- n13 -->
<g id="node16" class="node">
<title>n13</title>
<ellipse fill="none" stroke="black" cx="323.85" cy="-523.85" rx="23.85" ry="23.85"/>
<text text-anchor="middle" x="323.85" y="-519.18" font-family="Times,serif" font-size="14.00">13</text>
</g>
<!-- n15 -->
<g id="node17" class="node">
<title>n15</title>
<ellipse fill="none" stroke="black" cx="323.85" cy="-323.85" rx="23.85" ry="23.85"/>
<text text-anchor="middle" x="323.85" y="-319.18" font-family="Times,serif" font-size="14.00">15</text>
</g>
<!-- n16 -->
<g id="node18" class="node">
<title>n16</title>
<ellipse fill="none" stroke="black" cx="598.85" cy="-298.85" rx="23.85" ry="23.85"/>
<text text-anchor="middle" x="598.85" y="-294.18" font-family="Times,serif" font-size="14.00">16</text>
</g>
<!-- n17 -->
<g id="node19" class="node">
<title>n17</title>
<ellipse fill="none" stroke="black" cx="598.85" cy="-398.85" rx="23.85" ry="23.85"/>
<text text-anchor="middle" x="598.85" y="-394.18" font-family="Times,serif" font-size="14.00">17</text>
</g>
<!-- n19 -->
<g id="node21" class="node">
<title>n19</title>
<ellipse fill="none" stroke="black" cx="687.21" cy="-571.57" rx="23.85" ry="23.85"/>
<text text-anchor="middle" x="687.21" y="-566.9" font-family="Times,serif" font-size="14.00">19</text>
</g>
<!-- n21 -->
<g id="node22" class="node">
<title>n21</title>
<ellipse fill="none" stroke="black" cx="784.15" cy="-437.71" rx="23.85" ry="23.85"/>
<text text-anchor="middle" x="784.15" y="-433.03" font-family="Times,serif" font-size="14.00">21</text>
</g>
<!-- n19&#45;&gt;n21 -->
<g id="edge13" class="edge">
<title>n19&#45;&gt;n21</title>
<path fill="none" stroke="black" d="M701.3,-552.11C717.6,-529.6 744.58,-492.35 763.3,-466.49"/>
<polygon fill="black" stroke="black" points="766.12,-468.57 769.15,-458.42 760.45,-464.47 766.12,-468.57"/>
<text text-anchor="middle" x="728.18" y="-513.25" font-family="Times,serif" font-size="14.00">x</text>
</g>
<!-- n20 -->
<g id="node23" class="node">
<title>n20</title>
<ellipse fill="none" stroke="black" cx="806.4" cy="-273.11" rx="23.85" ry="23.85"/>
<text text-anchor="middle" x="806.4" y="-268.44" font-family="Times,serif" font-size="14.00">20</text>
</g>
<!-- n21&#45;&gt;n20 -->
<g id="edge15" class="edge">
<title>n21&#45;&gt;n20</title>
<path fill="none" stroke="black" d="M787.38,-413.77C791.14,-385.98 797.37,-339.89 801.67,-308.09"/>
<polygon fill="black" stroke="black" points="805.08,-308.95 802.96,-298.57 798.15,-308.02 805.08,-308.95"/>
<text text-anchor="middle" x="790.4" y="-364.88" font-family="Times,serif" font-size="14.00">y</text>
</g>
<!-- n23 -->
<g id="node24" class="node">
<title>n23</title>
<ellipse fill="none" stroke="black" cx="746.92" cy="-113.22" rx="23.85" ry="23.85"/>
<text text-anchor="middle" x="746.92" y="-108.54" font-family="Times,serif" font-size="14.00">23</text>
</g>
<!-- n20&#45;&gt;n23 -->
<g id="edge14" class="edge">
<title>n20&#45;&gt;n23</title>
<path fill="none" stroke="black" d="M798,-250.54C787.94,-223.48 770.97,-177.87 759.37,-146.7"/>
<polygon fill="black" stroke="black" points="762.66,-145.5 755.9,-137.35 756.1,-147.94 762.66,-145.5"/>
<text text-anchor="middle" x="774.94" y="-202.57" font-family="Times,serif" font-size="14.00">z</text>
</g>
<!-- n23&#45;&gt;n25 -->
<g id="edge16" class="edge">
<title>n23&#45;&gt;n25</title>
<path fill="none" stroke="black" d="M726.29,-100.62C703.8,-86.88 667.47,-64.69 640.82,-48.42"/>
<polygon fill="black" stroke="black" points="642.79,-45.52 632.43,-43.29 639.14,-51.49 642.79,-45.52"/>
<text text-anchor="middle" x="679.81" y="-78.47" font-family="Times,serif" font-size="14.00">ε</text>
</g>
<!-- n22 -->
<g id="node25" class="node">
<title>n22</title>
<ellipse fill="none" stroke="black" cx="448.85" cy="-273.85" rx="23.85" ry="23.85"/>
<text text-anchor="middle" x="448.85" y="-269.18" font-family="Times,serif" font-size="14.00">22</text>
</g>
<!-- n24 -->
<g id="node26" class="node">
<title>n24</title>
<ellipse fill="none" stroke="black" cx="544.86" cy="-662.65" rx="23.85" ry="23.85"/>
<text text-anchor="middle" x="544.86" y="-657.97" font-family="Times,serif" font-size="14.00">24</text>
</g>
<!-- n24&#45;&gt;n9 -->
<g id="edge17" class="edge">
<title>n24&#45;&gt;n9</title>
<path fill="none" stroke="black" d="M521.07,-659.44C491.33,-655.43 440.44,-648.57 408.28,-644.23"/>
<polygon fill="black" stroke="black" points="408.83,-640.77 398.45,-642.9 407.89,-647.71 408.83,-640.77"/>
<text text-anchor="middle" x="460.92" y="-655.78" font-family="Times,serif" font-size="14.00">ε</text>
</g>
<!-- n24&#45;&gt;n19 -->
<g id="edge18" class="edge">
<title>n24&#45;&gt;n19</title>
<path fill="none" stroke="black" d="M565.25,-649.6C589.35,-634.18 629.66,-608.39 657.3,-590.71"/>
<polygon fill="black" stroke="black" points="659.04,-593.75 665.57,-585.41 655.26,-587.85 659.04,-593.75"/>
<text text-anchor="middle" x="607.52" y="-624.1" font-family="Times,serif" font-size="14.00">ε</text>
</g>
<!-- n26 -->
<!-- n26&#45;&gt;n24 -->
<g id="edge19" class="edge">
<title>n26&#45;&gt;n24</title>
<path fill="none" stroke="black" d="M580.54,-801.37C574.06,-776.19 562.03,-729.42 553.74,-697.19"/>
<polygon fill="black" stroke="black" points="557.13,-696.33 551.25,-687.51 550.35,-698.07 557.13,-696.33"/>
</g>
</g>
</svg>
