<?xml version="1.0" encoding="UTF-8" standalone="no"?>
<!DOCTYPE svg PUBLIC "-//W3C//DTD SVG 1.1//EN"
 "http://www.w3.org/Graphics/SVG/1.1/DTD/svg11.dtd">
<!-- Generated by graphviz version 9.0.0 (0)
 -->
<!-- Title: NFA Pages: 1 -->
<svg width="987pt" height="1068pt"
 viewBox="0.00 0.00 986.85 1068.31" xmlns="http://www.w3.org/2000/svg" xmlns:xlink="http://www.w3.org/1999/xlink">
<g id="graph0" class="graph" transform="scale(1 1) rotate(0) translate(4 1064.31)">
<title>NFA</title>
<polygon fill="white" stroke="none" points="-4,4 -4,-1064.31 982.85,-1064.31 982.85,4 -4,4"/>
<!-- n0 -->
<g id="node1" class="node">
<title>n0</title>
<ellipse fill="none" stroke="black" cx="148" cy="-235.9" rx="18" ry="18"/>
<text text-anchor="middle" x="148" y="-231.23" font-family="Times,serif" font-size="14.00">0</text>
</g>
<!-- n0&#45;&gt;n0 -->
<g id="edge1" class="edge">
<title>n0&#45;&gt;n0</title>
<path fill="none" stroke="black" d="M164.66,-243.75C174.62,-245.49 184,-242.87 184,-235.9 184,-231.76 180.69,-229.16 175.92,-228.09"/>
<polygon fill="black" stroke="black" points="176.19,-224.59 166.18,-228.06 176.17,-231.59 176.19,-224.59"/>
<text text-anchor="middle" x="188.12" y="-231.23" font-family="Times,serif" font-size="14.00">e</text>
</g>
<!-- n18 -->
<g id="node2" class="node">
<title>n18</title>
<ellipse fill="none" stroke="black" cx="228" cy="-136.8" rx="23.85" ry="23.85"/>
<ellipse fill="none" stroke="black" cx="228" cy="-136.8" rx="27.85" ry="27.85"/>
<text text-anchor="middle" x="228" y="-132.13" font-family="Times,serif" font-size="14.00">18</text>
</g>
<!-- n0&#45;&gt;n18 -->
<g id="edge2" class="edge">
<title>n0&#45;&gt;n18</title>
<path fill="none" stroke="black" d="M159.12,-221.4C170.56,-207.52 188.74,-185.45 203.56,-167.47"/>
<polygon fill="black" stroke="black" points="205.89,-170.14 209.55,-160.2 200.49,-165.69 205.89,-170.14"/>
<text text-anchor="middle" x="193.62" y="-186.6" font-family="Times,serif" font-size="14.00">f</text>
</g>
<!-- n25 -->
<g id="node20" class="node">
<title>n25</title>
<ellipse fill="none" stroke="black" cx="258" cy="-27.85" rx="23.85" ry="23.85"/>
<ellipse fill="none" stroke="black" cx="258" cy="-27.85" rx="27.85" ry="27.85"/>
<text text-anchor="middle" x="258" y="-23.18" font-family="Times,serif" font-size="14.00">25</text>
</g>
<!-- n18&#45;&gt;n25 -->
<g id="edge18" class="edge">
<title>n18&#45;&gt;n25</title>
<path fill="none" stroke="black" d="M235.34,-109.64C239.01,-96.56 243.51,-80.5 247.53,-66.16"/>
<polygon fill="black" stroke="black" points="250.89,-67.14 250.22,-56.57 244.15,-65.25 250.89,-67.14"/>
<text text-anchor="middle" x="248.75" y="-77.65" font-family="Times,serif" font-size="14.00">ε</text>
</g>
<!-- n1 -->
<g id="node3" class="node">
<title>n1</title>
<ellipse fill="none" stroke="black" cx="271" cy="-1036.46" rx="18" ry="18"/>
<text text-anchor="middle" x="271" y="-1031.78" font-family="Times,serif" font-size="14.00">1</text>
</g>
<!-- n2 -->
<g id="node4" class="node">
<title>n2</title>
<ellipse fill="none" stroke="black" cx="74" cy="-426.1" rx="18" ry="18"/>
<text text-anchor="middle" x="74" y="-421.43" font-family="Times,serif" font-size="14.00">2</text>
</g>
<!-- n6 -->
<g id="node5" class="node">
<title>n6</title>
<ellipse fill="none" stroke="black" cx="105" cy="-553.8" rx="18" ry="18"/>
<text text-anchor="middle" x="105" y="-549.13" font-family="Times,serif" font-size="14.00">6</text>
</g>
<!-- n2&#45;&gt;n6 -->
<g id="edge3" class="edge">
<title>n2&#45;&gt;n6</title>
<path fill="none" stroke="black" d="M71.29,-444.1C69.03,-462.8 67.45,-493.44 76.5,-517.8 78.36,-522.81 81.25,-527.64 84.5,-532.02"/>
<polygon fill="black" stroke="black" points="81.8,-534.25 90.91,-539.65 87.16,-529.75 81.8,-534.25"/>
<text text-anchor="middle" x="80.75" y="-485.28" font-family="Times,serif" font-size="14.00">ε</text>
</g>
<!-- n4 -->
<g id="node6" class="node">
<title>n4</title>
<ellipse fill="none" stroke="black" cx="115" cy="-749.85" rx="18" ry="18"/>
<text text-anchor="middle" x="115" y="-745.18" font-family="Times,serif" font-size="14.00">4</text>
</g>
<!-- n2&#45;&gt;n4 -->
<g id="edge4" class="edge">
<title>n2&#45;&gt;n4</title>
<path fill="none" stroke="black" d="M69.4,-443.71C68.02,-449.48 66.68,-456.03 66,-462.1 63.22,-486.7 64.26,-493.11 66,-517.8 72.01,-602.97 66.34,-626.89 93,-708 94.79,-713.46 97.29,-719.04 99.96,-724.25"/>
<polygon fill="black" stroke="black" points="96.88,-725.92 104.79,-732.97 103.01,-722.52 96.88,-725.92"/>
<text text-anchor="middle" x="76.12" y="-593.75" font-family="Times,serif" font-size="14.00">a</text>
</g>
<!-- n14 -->
<g id="node7" class="node">
<title>n14</title>
<ellipse fill="none" stroke="black" cx="174" cy="-331" rx="23.85" ry="23.85"/>
<text text-anchor="middle" x="174" y="-326.33" font-family="Times,serif" font-size="14.00">14</text>
</g>
<!-- n2&#45;&gt;n14 -->
<g id="edge5" class="edge">
<title>n2&#45;&gt;n14</title>
<path fill="none" stroke="black" d="M82.42,-410.21C89.19,-399.08 99.45,-383.94 111,-372.85 120.58,-363.66 132.5,-355.32 143.39,-348.6"/>
<polygon fill="black" stroke="black" points="144.88,-351.79 151.7,-343.69 141.32,-345.76 144.88,-351.79"/>
<text text-anchor="middle" x="115.5" y="-376.8" font-family="Times,serif" font-size="14.00">d</text>
</g>
<!-- n6&#45;&gt;n2 -->
<g id="edge8" class="edge">
<title>n6&#45;&gt;n2</title>
<path fill="none" stroke="black" d="M101.01,-536.07C96.66,-517.86 89.44,-487.88 83,-462.1 82.42,-459.77 81.81,-457.36 81.19,-454.93"/>
<polygon fill="black" stroke="black" points="84.6,-454.11 78.73,-445.29 77.81,-455.85 84.6,-454.11"/>
<text text-anchor="middle" x="100.75" y="-485.28" font-family="Times,serif" font-size="14.00">ε</text>
</g>
<!-- n6&#45;&gt;n4 -->
<g id="edge9" class="edge">
<title>n6&#45;&gt;n4</title>
<path fill="none" stroke="black" d="M100.65,-571.65C95.33,-594.59 87.61,-636.88 92.75,-672.75 95.14,-689.42 100.32,-707.53 105.09,-721.9"/>
<polygon fill="black" stroke="black" points="101.69,-722.79 108.26,-731.1 108.3,-720.5 101.69,-722.79"/>
<text text-anchor="middle" x="97.12" y="-644.23" font-family="Times,serif" font-size="14.00">a</text>
</g>
<!-- n6&#45;&gt;n14 -->
<g id="edge10" class="edge">
<title>n6&#45;&gt;n14</title>
<path fill="none" stroke="black" d="M109.82,-536.37C119.17,-504.65 140.56,-432.83 160,-372.85 160.84,-370.26 161.72,-367.59 162.62,-364.9"/>
<polygon fill="black" stroke="black" points="165.93,-366.03 165.82,-355.44 159.3,-363.79 165.93,-366.03"/>
<text text-anchor="middle" x="153.5" y="-421.43" font-family="Times,serif" font-size="14.00">d</text>
</g>
<!-- n3 -->
<g id="node8" class="node">
<title>n3</title>
<ellipse fill="none" stroke="black" cx="128" cy="-648.9" rx="18" ry="18"/>
<text text-anchor="middle" x="128" y="-644.23" font-family="Times,serif" font-size="14.00">3</text>
</g>
<!-- n4&#45;&gt;n3 -->
<g id="edge7" class="edge">
<title>n4&#45;&gt;n3</title>
<path fill="none" stroke="black" d="M117.26,-731.62C119.19,-716.93 122,-695.53 124.27,-678.32"/>
<polygon fill="black" stroke="black" points="127.73,-678.81 125.56,-668.44 120.79,-677.9 127.73,-678.81"/>
<text text-anchor="middle" x="127.5" y="-694.7" font-family="Times,serif" font-size="14.00">b</text>
</g>
<!-- n14&#45;&gt;n0 -->
<g id="edge15" class="edge">
<title>n14&#45;&gt;n0</title>
<path fill="none" stroke="black" d="M158.88,-312.49C153.93,-305.67 149.05,-297.49 146.5,-289.15 144.18,-281.54 143.62,-273.02 143.89,-265.1"/>
<polygon fill="black" stroke="black" points="147.37,-265.5 144.7,-255.25 140.4,-264.93 147.37,-265.5"/>
<text text-anchor="middle" x="150.75" y="-275.85" font-family="Times,serif" font-size="14.00">ε</text>
</g>
<!-- n14&#45;&gt;n0 -->
<g id="edge16" class="edge">
<title>n14&#45;&gt;n0</title>
<path fill="none" stroke="black" d="M167.84,-307.94C164.2,-294.92 159.57,-278.32 155.69,-264.44"/>
<polygon fill="black" stroke="black" points="159.12,-263.71 153.06,-255.02 152.38,-265.59 159.12,-263.71"/>
<text text-anchor="middle" x="167.12" y="-275.85" font-family="Times,serif" font-size="14.00">e</text>
</g>
<!-- n14&#45;&gt;n18 -->
<g id="edge17" class="edge">
<title>n14&#45;&gt;n18</title>
<path fill="none" stroke="black" d="M182.46,-308.24C188.14,-293.13 195.57,-272.47 201,-253.9 208.61,-227.91 215.49,-198.14 220.41,-175.26"/>
<polygon fill="black" stroke="black" points="223.77,-176.29 222.41,-165.78 216.92,-174.84 223.77,-176.29"/>
<text text-anchor="middle" x="213.62" y="-231.23" font-family="Times,serif" font-size="14.00">f</text>
</g>
<!-- n3&#45;&gt;n6 -->
<g id="edge6" class="edge">
<title>n3&#45;&gt;n6</title>
<path fill="none" stroke="black" d="M123.89,-631.26C120.54,-617.71 115.74,-598.29 111.82,-582.42"/>
<polygon fill="black" stroke="black" points="115.31,-581.95 109.52,-573.09 108.52,-583.63 115.31,-581.95"/>
<text text-anchor="middle" x="121.75" y="-593.75" font-family="Times,serif" font-size="14.00">c</text>
</g>
<!-- n5 -->
<g id="node9" class="node">
<title>n5</title>
<ellipse fill="none" stroke="black" cx="325" cy="-1036.46" rx="18" ry="18"/>
<text text-anchor="middle" x="325" y="-1031.78" font-family="Times,serif" font-size="14.00">5</text>
</g>
<!-- n7 -->
<g id="node10" class="node">
<title>n7</title>
<ellipse fill="none" stroke="black" cx="379" cy="-1036.46" rx="18" ry="18"/>
<text text-anchor="middle" x="379" y="-1031.78" font-family="Times,serif" font-size="14.00">7</text>
</g>
<!-- n8 -->
<g id="node11" class="node">
<title>n8</title>
<ellipse fill="none" stroke="black" cx="433" cy="-1036.46" rx="18" ry="18"/>
<text text-anchor="middle" x="433" y="-1031.78" font-family="Times,serif" font-size="14.00">8</text>
</g>
<!-- n9 -->
<g id="node12" class="node">
<title>n9</title>
<ellipse fill="none" stroke="black" cx="115" cy="-850.8" rx="18" ry="18"/>
<text text-anchor="middle" x="115" y="-846.13" font-family="Times,serif" font-size="14.00">9</text>
</g>
<!-- n9&#45;&gt;n2 -->
<g id="edge11" class="edge">
<title>n9&#45;&gt;n2</title>
<path fill="none" stroke="black" d="M98.03,-844.19C66.04,-832.43 0,-801.95 0,-750.85 0,-750.85 0,-750.85 0,-552.8 0,-510.59 31.38,-470.05 53.27,-446.91"/>
<polygon fill="black" stroke="black" points="55.54,-449.59 60.05,-440 50.55,-444.68 55.54,-449.59"/>
<text text-anchor="middle" x="3.75" y="-644.23" font-family="Times,serif" font-size="14.00">ε</text>
</g>
<!-- n9&#45;&gt;n4 -->
<g id="edge12" class="edge">
<title>n9&#45;&gt;n4</title>
<path fill="none" stroke="black" d="M115,-832.57C115,-817.9 115,-796.54 115,-779.34"/>
<polygon fill="black" stroke="black" points="118.5,-779.74 115,-769.74 111.5,-779.74 118.5,-779.74"/>
<text text-anchor="middle" x="119.12" y="-795.65" font-family="Times,serif" font-size="14.00">a</text>
</g>
<!-- n9&#45;&gt;n14 -->
<g id="edge13" class="edge">
<title>n9&#45;&gt;n14</title>
<path fill="none" stroke="black" d="M128.09,-837.76C145.48,-820.39 174,-786.46 174,-750.85 174,-750.85 174,-750.85 174,-425.1 174,-405.8 174,-384.24 174,-366.74"/>
<polygon fill="black" stroke="black" points="177.5,-366.85 174,-356.85 170.5,-366.85 177.5,-366.85"/>
<text text-anchor="middle" x="178.5" y="-593.75" font-family="Times,serif" font-size="14.00">d</text>
</g>
<!-- n9&#45;&gt;n9 -->
<g id="edge14" class="edge">
<title>n9&#45;&gt;n9</title>
<path fill="none" stroke="black" d="M130.92,-859.52C141.15,-861.79 151,-858.89 151,-850.8 151,-845.88 147.34,-842.87 142.17,-841.79"/>
<polygon fill="black" stroke="black" points="142.33,-838.29 132.43,-842.05 142.52,-845.29 142.33,-838.29"/>
<text text-anchor="middle" x="157" y="-846.13" font-family="Times,serif" font-size="14.00">w</text>
</g>
<!-- n10 -->
<g id="node13" class="node">
<title>n10</title>
<ellipse fill="none" stroke="black" cx="493" cy="-1036.46" rx="23.85" ry="23.85"/>
<text text-anchor="middle" x="493" y="-1031.78" font-family="Times,serif" font-size="14.00">10</text>
</g>
<!-- n11 -->
<g id="node14" class="node">
<title>n11</title>
<ellipse fill="none" stroke="black" cx="559" cy="-1036.46" rx="23.85" ry="23.85"/>
<text text-anchor="middle" x="559" y="-1031.78" font-family="Times,serif" font-size="14.00">11</text>
</g>
<!-- n12 -->
<g id="node15" class="node">
<title>n12</title>
<ellipse fill="none" stroke="black" cx="625" cy="-1036.46" rx="23.85" ry="23.85"/>
<text text-anchor="middle" x="625" y="-1031.78" font-family="Times,serif" font-size="14.00">12</text>
</g>
<!-- n13 -->
<g id="node16" class="node">
<title>n13</title>
<ellipse fill="none" stroke="black" cx="691" cy="-1036.46" rx="23.85" ry="23.85"/>
<text text-anchor="middle" x="691" y="-1031.78" font-family="Times,serif" font-size="14.00">13</text>
</g>
<!-- n15 -->
<g id="node17" class="node">
<title>n15</title>
<ellipse fill="none" stroke="black" cx="757" cy="-1036.46" rx="23.85" ry="23.85"/>
<text text-anchor="middle" x="757" y="-1031.78" font-family="Times,serif" font-size="14.00">15</text>
</g>
<!-- n16 -->
<g id="node18" class="node">
<title>n16</title>
<ellipse fill="none" stroke="black" cx="823" cy="-1036.46" rx="23.85" ry="23.85"/>
<text text-anchor="middle" x="823" y="-1031.78" font-family="Times,serif" font-size="14.00">16</text>
</g>
<!-- n17 -->
<g id="node19" class="node">
<title>n17</title>
<ellipse fill="none" stroke="black" cx="889" cy="-1036.46" rx="23.85" ry="23.85"/>
<text text-anchor="middle" x="889" y="-1031.78" font-family="Times,serif" font-size="14.00">17</text>
</g>
<!-- n19 -->
<g id="node21" class="node">
<title>n19</title>
<ellipse fill="none" stroke="black" cx="331" cy="-850.8" rx="23.85" ry="23.85"/>
<text text-anchor="middle" x="331" y="-846.13" font-family="Times,serif" font-size="14.00">19</text>
</g>
<!-- n21 -->
<g id="node22" class="node">
<title>n21</title>
<ellipse fill="none" stroke="black" cx="287" cy="-749.85" rx="23.85" ry="23.85"/>
<text text-anchor="middle" x="287" y="-745.18" font-family="Times,serif" font-size="14.00">21</text>
</g>
<!-- n19&#45;&gt;n21 -->
<g id="edge19" class="edge">
<title>n19&#45;&gt;n21</title>
<path fill="none" stroke="black" d="M321.67,-828.82C315.7,-815.4 307.85,-797.73 301.12,-782.61"/>
<polygon fill="black" stroke="black" points="304.35,-781.25 297.08,-773.53 297.95,-784.09 304.35,-781.25"/>
<text text-anchor="middle" x="316.12" y="-795.65" font-family="Times,serif" font-size="14.00">x</text>
</g>
<!-- n20 -->
<g id="node23" class="node">
<title>n20</title>
<ellipse fill="none" stroke="black" cx="287" cy="-648.9" rx="23.85" ry="23.85"/>
<text text-anchor="middle" x="287" y="-644.23" font-family="Times,serif" font-size="14.00">20</text>
</g>
<!-- n21&#45;&gt;n20 -->
<g id="edge21" class="edge">
<title>n21&#45;&gt;n20</title>
<path fill="none" stroke="black" d="M287,-725.65C287,-713.37 287,-698.05 287,-684.4"/>
<polygon fill="black" stroke="black" points="290.5,-684.47 287,-674.47 283.5,-684.47 290.5,-684.47"/>
<text text-anchor="middle" x="291.12" y="-694.7" font-family="Times,serif" font-size="14.00">y</text>
</g>
<!-- n23 -->
<g id="node24" class="node">
<title>n23</title>
<ellipse fill="none" stroke="black" cx="287" cy="-489.95" rx="23.85" ry="23.85"/>
<ellipse fill="none" stroke="black" cx="287" cy="-489.95" rx="27.85" ry="27.85"/>
<text text-anchor="middle" x="287" y="-485.28" font-family="Times,serif" font-size="14.00">23</text>
</g>
<!-- n20&#45;&gt;n23 -->
<g id="edge20" class="edge">
<title>n20&#45;&gt;n23</title>
<path fill="none" stroke="black" d="M287,-624.74C287,-599.68 287,-559.29 287,-529.44"/>
<polygon fill="black" stroke="black" points="290.5,-529.68 287,-519.68 283.5,-529.68 290.5,-529.68"/>
<text text-anchor="middle" x="290.75" y="-593.75" font-family="Times,serif" font-size="14.00">z</text>
</g>
<!-- n23&#45;&gt;n25 -->
<g id="edge22" class="edge">
<title>n23&#45;&gt;n25</title>
<path fill="none" stroke="black" d="M286.6,-461.82C286.33,-440.3 286,-409.47 286,-382.48 286,-382.48 286,-382.48 286,-135.8 286,-111.51 279.16,-85.1 272.24,-64.6"/>
<polygon fill="black" stroke="black" points="275.58,-63.55 268.93,-55.29 268.98,-65.89 275.58,-63.55"/>
<text text-anchor="middle" x="289.75" y="-275.85" font-family="Times,serif" font-size="14.00">ε</text>
</g>
<!-- n22 -->
<g id="node25" class="node">
<title>n22</title>
<ellipse fill="none" stroke="black" cx="955" cy="-1036.46" rx="23.85" ry="23.85"/>
<text text-anchor="middle" x="955" y="-1031.78" font-family="Times,serif" font-size="14.00">22</text>
</g>
<!-- n24 -->
<g id="node26" class="node">
<title>n24</title>
<ellipse fill="none" stroke="black" cx="217" cy="-951.75" rx="23.85" ry="23.85"/>
<text text-anchor="middle" x="217" y="-947.08" font-family="Times,serif" font-size="14.00">24</text>
</g>
<!-- n24&#45;&gt;n4 -->
<g id="edge25" class="edge">
<title>n24&#45;&gt;n4</title>
<path fill="none" stroke="black" d="M211.05,-928.45C203.78,-903 190.17,-860.55 172,-826.95 161.44,-807.42 146.23,-787.4 134.19,-772.8"/>
<polygon fill="black" stroke="black" points="136.9,-770.59 127.78,-765.21 131.55,-775.11 136.9,-770.59"/>
<text text-anchor="middle" x="198.12" y="-846.13" font-family="Times,serif" font-size="14.00">a</text>
</g>
<!-- n24&#45;&gt;n14 -->
<g id="edge26" class="edge">
<title>n24&#45;&gt;n14</title>
<path fill="none" stroke="black" d="M223.4,-928.56C228.57,-908.65 235,-878.52 235,-851.8 235,-851.8 235,-851.8 235,-425.1 235,-397.87 216.51,-372.4 199.89,-355.01"/>
<polygon fill="black" stroke="black" points="202.61,-352.78 193.05,-348.22 197.68,-357.75 202.61,-352.78"/>
<text text-anchor="middle" x="239.5" y="-644.23" font-family="Times,serif" font-size="14.00">d</text>
</g>
<!-- n24&#45;&gt;n9 -->
<g id="edge23" class="edge">
<title>n24&#45;&gt;n9</title>
<path fill="none" stroke="black" d="M193.98,-944.2C176.09,-938.02 151.83,-927.11 136.5,-909.9 129.07,-901.56 124.13,-890.42 120.88,-880.13"/>
<polygon fill="black" stroke="black" points="124.27,-879.26 118.28,-870.52 117.51,-881.09 124.27,-879.26"/>
<text text-anchor="middle" x="140.75" y="-896.6" font-family="Times,serif" font-size="14.00">ε</text>
</g>
<!-- n24&#45;&gt;n9 -->
<g id="edge27" class="edge">
<title>n24&#45;&gt;n9</title>
<path fill="none" stroke="black" d="M199.72,-935C191.55,-927.47 181.7,-918.3 173,-909.9 160.25,-897.61 146.2,-883.55 135.13,-872.35"/>
<polygon fill="black" stroke="black" points="137.88,-870.15 128.37,-865.49 132.9,-875.07 137.88,-870.15"/>
<text text-anchor="middle" x="179" y="-896.6" font-family="Times,serif" font-size="14.00">w</text>
</g>
<!-- n24&#45;&gt;n19 -->
<g id="edge24" class="edge">
<title>n24&#45;&gt;n19</title>
<path fill="none" stroke="black" d="M239.47,-942.75C256.22,-935.95 278.88,-924.9 295,-909.9 303.17,-902.31 310.19,-892.46 315.81,-883.03"/>
<polygon fill="black" stroke="black" points="318.8,-884.86 320.6,-874.42 312.68,-881.45 318.8,-884.86"/>
<text text-anchor="middle" x="313.75" y="-896.6" font-family="Times,serif" font-size="14.00">ε</text>
</g>
<!-- n24&#45;&gt;n21 -->
<g id="edge28" class="edge">
<title>n24&#45;&gt;n21</title>
<path fill="none" stroke="black" d="M233.14,-933.58C238.88,-926.67 244.93,-918.34 249,-909.9 268.45,-869.6 278.35,-818.62 283.09,-785.4"/>
<polygon fill="black" stroke="black" points="286.56,-785.89 284.41,-775.51 279.62,-784.96 286.56,-785.89"/>
<text text-anchor="middle" x="280.12" y="-846.13" font-family="Times,serif" font-size="14.00">x</text>
</g>
<!-- n26 -->
<!-- n26&#45;&gt;n24 -->
<g id="edge29" class="edge">
<title>n26&#45;&gt;n24</title>
<path fill="none" stroke="black" d="M217,-1018.32C217,-1009.29 217,-997.87 217,-987.11"/>
<polygon fill="black" stroke="black" points="220.5,-987.34 217,-977.34 213.5,-987.34 220.5,-987.34"/>
</g>
</g>
</svg>
