<?xml version="1.0" encoding="UTF-8" standalone="no"?>
<!DOCTYPE svg PUBLIC "-//W3C//DTD SVG 1.1//EN"
 "http://www.w3.org/Graphics/SVG/1.1/DTD/svg11.dtd">
<!-- Generated by graphviz version 10.0.1 (0)
 -->
<!-- Title: RegEx Pages: 1 -->
<svg width="278pt" height="404pt"
 viewBox="0.00 0.00 278.00 404.00" xmlns="http://www.w3.org/2000/svg" xmlns:xlink="http://www.w3.org/1999/xlink">
<g id="graph0" class="graph" transform="scale(1 1) rotate(0) translate(4 400)">
<title>RegEx</title>
<polygon fill="white" stroke="none" points="-4,4 -4,-400 274,-400 274,4 -4,4"/>
<!-- n1 -->
<g id="node1" class="node">
<title>n1</title>
<ellipse fill="none" stroke="black" cx="135" cy="-378" rx="27" ry="18"/>
<text text-anchor="middle" x="135" y="-373.32" font-family="Times,serif" font-size="14.00">|</text>
</g>
<!-- n2 -->
<g id="node2" class="node">
<title>n2</title>
<ellipse fill="none" stroke="black" cx="99" cy="-306" rx="27" ry="18"/>
<text text-anchor="middle" x="99" y="-301.32" font-family="Times,serif" font-size="14.00"> </text>
</g>
<!-- n1&#45;&gt;n2 -->
<g id="edge1" class="edge">
<title>n1&#45;&gt;n2</title>
<path fill="none" stroke="black" d="M126.65,-360.76C122.42,-352.55 117.19,-342.37 112.42,-333.09"/>
<polygon fill="black" stroke="black" points="115.68,-331.79 108,-324.49 109.46,-334.99 115.68,-331.79"/>
</g>
<!-- n3 -->
<g id="node7" class="node">
<title>n3</title>
<ellipse fill="none" stroke="black" cx="171" cy="-306" rx="27" ry="18"/>
<text text-anchor="middle" x="171" y="-301.32" font-family="Times,serif" font-size="14.00"> </text>
</g>
<!-- n1&#45;&gt;n3 -->
<g id="edge6" class="edge">
<title>n1&#45;&gt;n3</title>
<path fill="none" stroke="black" d="M143.35,-360.76C147.58,-352.55 152.81,-342.37 157.58,-333.09"/>
<polygon fill="black" stroke="black" points="160.54,-334.99 162,-324.49 154.32,-331.79 160.54,-334.99"/>
</g>
<!-- n4 -->
<g id="node3" class="node">
<title>n4</title>
<ellipse fill="none" stroke="black" cx="27" cy="-234" rx="27" ry="18"/>
<text text-anchor="middle" x="27" y="-229.32" font-family="Times,serif" font-size="14.00">x</text>
</g>
<!-- n2&#45;&gt;n4 -->
<g id="edge2" class="edge">
<title>n2&#45;&gt;n4</title>
<path fill="none" stroke="black" d="M84.08,-290.5C74.23,-280.92 61.14,-268.19 49.97,-257.34"/>
<polygon fill="black" stroke="black" points="52.59,-255 42.98,-250.54 47.71,-260.02 52.59,-255"/>
</g>
<!-- n5 -->
<g id="node4" class="node">
<title>n5</title>
<ellipse fill="none" stroke="black" cx="99" cy="-234" rx="27" ry="18"/>
<text text-anchor="middle" x="99" y="-229.32" font-family="Times,serif" font-size="14.00">|</text>
</g>
<!-- n2&#45;&gt;n5 -->
<g id="edge3" class="edge">
<title>n2&#45;&gt;n5</title>
<path fill="none" stroke="black" d="M99,-287.7C99,-280.41 99,-271.73 99,-263.54"/>
<polygon fill="black" stroke="black" points="102.5,-263.62 99,-253.62 95.5,-263.62 102.5,-263.62"/>
</g>
<!-- n10 -->
<g id="node5" class="node">
<title>n10</title>
<ellipse fill="none" stroke="black" cx="27" cy="-162" rx="27" ry="18"/>
<text text-anchor="middle" x="27" y="-157.32" font-family="Times,serif" font-size="14.00">z</text>
</g>
<!-- n5&#45;&gt;n10 -->
<g id="edge4" class="edge">
<title>n5&#45;&gt;n10</title>
<path fill="none" stroke="black" d="M84.08,-218.5C74.23,-208.92 61.14,-196.19 49.97,-185.34"/>
<polygon fill="black" stroke="black" points="52.59,-183 42.98,-178.54 47.71,-188.02 52.59,-183"/>
</g>
<!-- n11 -->
<g id="node6" class="node">
<title>n11</title>
<ellipse fill="none" stroke="black" cx="99" cy="-162" rx="27" ry="18"/>
<text text-anchor="middle" x="99" y="-157.32" font-family="Times,serif" font-size="14.00">y</text>
</g>
<!-- n5&#45;&gt;n11 -->
<g id="edge5" class="edge">
<title>n5&#45;&gt;n11</title>
<path fill="none" stroke="black" d="M99,-215.7C99,-208.41 99,-199.73 99,-191.54"/>
<polygon fill="black" stroke="black" points="102.5,-191.62 99,-181.62 95.5,-191.62 102.5,-191.62"/>
</g>
<!-- n6 -->
<g id="node8" class="node">
<title>n6</title>
<ellipse fill="none" stroke="black" cx="171" cy="-234" rx="27" ry="18"/>
<text text-anchor="middle" x="171" y="-229.32" font-family="Times,serif" font-size="14.00"> </text>
</g>
<!-- n3&#45;&gt;n6 -->
<g id="edge7" class="edge">
<title>n3&#45;&gt;n6</title>
<path fill="none" stroke="black" d="M171,-287.7C171,-280.41 171,-271.73 171,-263.54"/>
<polygon fill="black" stroke="black" points="174.5,-263.62 171,-253.62 167.5,-263.62 174.5,-263.62"/>
</g>
<!-- n7 -->
<g id="node15" class="node">
<title>n7</title>
<ellipse fill="none" stroke="black" cx="243" cy="-234" rx="27" ry="18"/>
<text text-anchor="middle" x="243" y="-229.32" font-family="Times,serif" font-size="14.00">f&#45;i</text>
</g>
<!-- n3&#45;&gt;n7 -->
<g id="edge14" class="edge">
<title>n3&#45;&gt;n7</title>
<path fill="none" stroke="black" d="M185.92,-290.5C195.77,-280.92 208.86,-268.19 220.03,-257.34"/>
<polygon fill="black" stroke="black" points="222.29,-260.02 227.02,-250.54 217.41,-255 222.29,-260.02"/>
</g>
<!-- n12 -->
<g id="node9" class="node">
<title>n12</title>
<ellipse fill="none" stroke="black" cx="171" cy="-162" rx="27" ry="18"/>
<text text-anchor="middle" x="171" y="-157.32" font-family="Times,serif" font-size="14.00"> </text>
</g>
<!-- n6&#45;&gt;n12 -->
<g id="edge8" class="edge">
<title>n6&#45;&gt;n12</title>
<path fill="none" stroke="black" d="M171,-215.7C171,-208.41 171,-199.73 171,-191.54"/>
<polygon fill="black" stroke="black" points="174.5,-191.62 171,-181.62 167.5,-191.62 174.5,-191.62"/>
</g>
<!-- n13 -->
<g id="node13" class="node">
<title>n13</title>
<ellipse fill="none" stroke="black" cx="243" cy="-162" rx="27" ry="18"/>
<text text-anchor="middle" x="243" y="-157.32" font-family="Times,serif" font-size="14.00">*</text>
</g>
<!-- n6&#45;&gt;n13 -->
<g id="edge12" class="edge">
<title>n6&#45;&gt;n13</title>
<path fill="none" stroke="black" d="M185.92,-218.5C195.77,-208.92 208.86,-196.19 220.03,-185.34"/>
<polygon fill="black" stroke="black" points="222.29,-188.02 227.02,-178.54 217.41,-183 222.29,-188.02"/>
</g>
<!-- n24 -->
<g id="node10" class="node">
<title>n24</title>
<ellipse fill="none" stroke="black" cx="97" cy="-90" rx="29.11" ry="18"/>
<text text-anchor="middle" x="97" y="-85.33" font-family="Times,serif" font-size="14.00">any</text>
</g>
<!-- n12&#45;&gt;n24 -->
<g id="edge9" class="edge">
<title>n12&#45;&gt;n24</title>
<path fill="none" stroke="black" d="M156.02,-146.83C145.83,-137.19 132.13,-124.23 120.49,-113.22"/>
<polygon fill="black" stroke="black" points="123.23,-111 113.56,-106.67 118.42,-116.08 123.23,-111"/>
</g>
<!-- n25 -->
<g id="node11" class="node">
<title>n25</title>
<ellipse fill="none" stroke="black" cx="171" cy="-90" rx="27" ry="18"/>
<text text-anchor="middle" x="171" y="-85.33" font-family="Times,serif" font-size="14.00">*</text>
</g>
<!-- n12&#45;&gt;n25 -->
<g id="edge10" class="edge">
<title>n12&#45;&gt;n25</title>
<path fill="none" stroke="black" d="M171,-143.7C171,-136.41 171,-127.73 171,-119.54"/>
<polygon fill="black" stroke="black" points="174.5,-119.62 171,-109.62 167.5,-119.62 174.5,-119.62"/>
</g>
<!-- n50 -->
<g id="node12" class="node">
<title>n50</title>
<ellipse fill="none" stroke="black" cx="171" cy="-18" rx="27" ry="18"/>
<text text-anchor="middle" x="171" y="-13.32" font-family="Times,serif" font-size="14.00">w</text>
</g>
<!-- n25&#45;&gt;n50 -->
<g id="edge11" class="edge">
<title>n25&#45;&gt;n50</title>
<path fill="none" stroke="black" d="M171,-71.7C171,-64.41 171,-55.73 171,-47.54"/>
<polygon fill="black" stroke="black" points="174.5,-47.62 171,-37.62 167.5,-47.62 174.5,-47.62"/>
</g>
<!-- n26 -->
<g id="node14" class="node">
<title>n26</title>
<ellipse fill="none" stroke="black" cx="243" cy="-90" rx="27" ry="18"/>
<text text-anchor="middle" x="243" y="-85.33" font-family="Times,serif" font-size="14.00">a&#45;c</text>
</g>
<!-- n13&#45;&gt;n26 -->
<g id="edge13" class="edge">
<title>n13&#45;&gt;n26</title>
<path fill="none" stroke="black" d="M243,-143.7C243,-136.41 243,-127.73 243,-119.54"/>
<polygon fill="black" stroke="black" points="246.5,-119.62 243,-109.62 239.5,-119.62 246.5,-119.62"/>
</g>
</g>
</svg>
