<?xml version="1.0" encoding="UTF-8" standalone="no"?>
<!DOCTYPE svg PUBLIC "-//W3C//DTD SVG 1.1//EN"
 "http://www.w3.org/Graphics/SVG/1.1/DTD/svg11.dtd">
<!-- Generated by graphviz version 9.0.0 (0)
 -->
<!-- Title: DFA Pages: 1 -->
<svg width="777pt" height="515pt"
 viewBox="0.00 0.00 776.53 514.99" xmlns="http://www.w3.org/2000/svg" xmlns:xlink="http://www.w3.org/1999/xlink">
<g id="graph0" class="graph" transform="scale(1 1) rotate(0) translate(4 510.99)">
<title>DFA</title>
<polygon fill="white" stroke="none" points="-4,4 -4,-510.99 772.53,-510.99 772.53,4 -4,4"/>
<!-- n0 -->
<g id="node1" class="node">
<title>n0</title>
<ellipse fill="none" stroke="black" cx="409.87" cy="-327.98" rx="18" ry="18"/>
<text text-anchor="middle" x="409.87" y="-323.3" font-family="Times,serif" font-size="14.00">0</text>
</g>
<!-- n1 -->
<g id="node2" class="node">
<title>n1</title>
<ellipse fill="none" stroke="black" cx="604.49" cy="-327.98" rx="18" ry="18"/>
<text text-anchor="middle" x="604.49" y="-323.3" font-family="Times,serif" font-size="14.00">1</text>
</g>
<!-- n0&#45;&gt;n1 -->
<g id="edge1" class="edge">
<title>n0&#45;&gt;n1</title>
<path fill="none" stroke="black" d="M428.18,-327.98C461.86,-327.98 533.95,-327.98 574.74,-327.98"/>
<polygon fill="black" stroke="black" points="574.57,-331.48 584.57,-327.98 574.57,-324.48 574.57,-331.48"/>
<text text-anchor="middle" x="497.34" y="-314.68" font-family="Times,serif" font-size="14.00">a</text>
</g>
<!-- n2 -->
<g id="node3" class="node">
<title>n2</title>
<ellipse fill="none" stroke="black" cx="505.14" cy="-183.89" rx="18" ry="18"/>
<text text-anchor="middle" x="505.14" y="-179.22" font-family="Times,serif" font-size="14.00">2</text>
</g>
<!-- n0&#45;&gt;n2 -->
<g id="edge2" class="edge">
<title>n0&#45;&gt;n2</title>
<path fill="none" stroke="black" d="M420.06,-312.56C436.54,-287.64 469.15,-238.32 488.86,-208.5"/>
<polygon fill="black" stroke="black" points="491.58,-210.74 494.18,-200.46 485.74,-206.88 491.58,-210.74"/>
<text text-anchor="middle" x="449.96" y="-264.48" font-family="Times,serif" font-size="14.00">d</text>
</g>
<!-- n3 -->
<g id="node4" class="node">
<title>n3</title>
<ellipse fill="none" stroke="black" cx="506.32" cy="-327.98" rx="18" ry="18"/>
<text text-anchor="middle" x="506.32" y="-323.3" font-family="Times,serif" font-size="14.00">3</text>
</g>
<!-- n0&#45;&gt;n3 -->
<g id="edge3" class="edge">
<title>n0&#45;&gt;n3</title>
<path fill="none" stroke="black" d="M428.01,-327.98C441.66,-327.98 460.67,-327.98 476.55,-327.98"/>
<polygon fill="black" stroke="black" points="476.42,-331.48 486.42,-327.98 476.42,-324.48 476.42,-331.48"/>
<text text-anchor="middle" x="446.28" y="-331.93" font-family="Times,serif" font-size="14.00">w</text>
</g>
<!-- n4 -->
<g id="node5" class="node">
<title>n4</title>
<ellipse fill="none" stroke="black" cx="244.18" cy="-299.97" rx="18" ry="18"/>
<text text-anchor="middle" x="244.18" y="-295.29" font-family="Times,serif" font-size="14.00">4</text>
</g>
<!-- n0&#45;&gt;n4 -->
<g id="edge4" class="edge">
<title>n0&#45;&gt;n4</title>
<path fill="none" stroke="black" d="M391.82,-324.93C363.31,-320.11 307.58,-310.69 273.34,-304.9"/>
<polygon fill="black" stroke="black" points="274.14,-301.48 263.69,-303.27 272.97,-308.38 274.14,-301.48"/>
<text text-anchor="middle" x="328.45" y="-318.86" font-family="Times,serif" font-size="14.00">x</text>
</g>
<!-- n9 -->
<g id="node6" class="node">
<title>n9</title>
<ellipse fill="none" stroke="black" cx="750.53" cy="-299.97" rx="18" ry="18"/>
<text text-anchor="middle" x="750.53" y="-295.29" font-family="Times,serif" font-size="14.00">9</text>
</g>
<!-- n1&#45;&gt;n9 -->
<g id="edge5" class="edge">
<title>n1&#45;&gt;n9</title>
<path fill="none" stroke="black" d="M622.39,-324.54C647.03,-319.82 691.68,-311.26 721.22,-305.59"/>
<polygon fill="black" stroke="black" points="721.83,-309.04 730.99,-303.72 720.51,-302.16 721.83,-309.04"/>
<text text-anchor="middle" x="667.31" y="-319.02" font-family="Times,serif" font-size="14.00">b</text>
</g>
<!-- n7 -->
<g id="node7" class="node">
<title>n7</title>
<ellipse fill="none" stroke="black" cx="438.87" cy="-53.31" rx="18" ry="18"/>
<text text-anchor="middle" x="438.87" y="-48.64" font-family="Times,serif" font-size="14.00">7</text>
</g>
<!-- n2&#45;&gt;n7 -->
<g id="edge6" class="edge">
<title>n2&#45;&gt;n7</title>
<path fill="none" stroke="black" d="M496.88,-167.62C485.72,-145.63 465.68,-106.15 452.33,-79.84"/>
<polygon fill="black" stroke="black" points="455.56,-78.48 447.92,-71.14 449.32,-81.64 455.56,-78.48"/>
<text text-anchor="middle" x="470.48" y="-127.68" font-family="Times,serif" font-size="14.00">e</text>
</g>
<!-- n8 -->
<g id="node8" class="node">
<title>n8</title>
<ellipse fill="none" stroke="black" cx="556.48" cy="-22" rx="18" ry="18"/>
<ellipse fill="none" stroke="black" cx="556.48" cy="-22" rx="22" ry="22"/>
<text text-anchor="middle" x="556.48" y="-17.32" font-family="Times,serif" font-size="14.00">8</text>
</g>
<!-- n2&#45;&gt;n8 -->
<g id="edge7" class="edge">
<title>n2&#45;&gt;n8</title>
<path fill="none" stroke="black" d="M510.73,-166.26C519.28,-139.31 535.71,-87.47 546.38,-53.83"/>
<polygon fill="black" stroke="black" points="549.62,-55.22 549.3,-44.63 542.94,-53.1 549.62,-55.22"/>
<text text-anchor="middle" x="525.93" y="-114" font-family="Times,serif" font-size="14.00">f</text>
</g>
<!-- n3&#45;&gt;n1 -->
<g id="edge8" class="edge">
<title>n3&#45;&gt;n1</title>
<path fill="none" stroke="black" d="M524.78,-327.98C538.91,-327.98 558.66,-327.98 574.97,-327.98"/>
<polygon fill="black" stroke="black" points="574.59,-331.48 584.59,-327.98 574.59,-324.48 574.59,-331.48"/>
<text text-anchor="middle" x="554" y="-314.68" font-family="Times,serif" font-size="14.00">a</text>
</g>
<!-- n3&#45;&gt;n2 -->
<g id="edge9" class="edge">
<title>n3&#45;&gt;n2</title>
<path fill="none" stroke="black" d="M506.17,-309.73C505.97,-285.48 505.62,-242.33 505.38,-213.42"/>
<polygon fill="black" stroke="black" points="508.88,-213.48 505.3,-203.51 501.88,-213.54 508.88,-213.48"/>
<text text-anchor="middle" x="501.27" y="-265.52" font-family="Times,serif" font-size="14.00">d</text>
</g>
<!-- n3&#45;&gt;n3 -->
<g id="edge10" class="edge">
<title>n3&#45;&gt;n3</title>
<path fill="none" stroke="black" d="M523.36,-334.36C533.18,-335.66 542.32,-333.53 542.32,-327.98 542.32,-324.77 539.26,-322.7 534.79,-321.78"/>
<polygon fill="black" stroke="black" points="534.92,-318.28 524.87,-321.62 534.81,-325.28 534.92,-318.28"/>
<text text-anchor="middle" x="548.32" y="-323.3" font-family="Times,serif" font-size="14.00">w</text>
</g>
<!-- n5 -->
<g id="node9" class="node">
<title>n5</title>
<ellipse fill="none" stroke="black" cx="118.12" cy="-183.89" rx="18" ry="18"/>
<text text-anchor="middle" x="118.12" y="-179.22" font-family="Times,serif" font-size="14.00">5</text>
</g>
<!-- n4&#45;&gt;n5 -->
<g id="edge11" class="edge">
<title>n4&#45;&gt;n5</title>
<path fill="none" stroke="black" d="M230.69,-287.55C208.89,-267.47 165.74,-227.74 139.65,-203.72"/>
<polygon fill="black" stroke="black" points="142.36,-201.45 132.63,-197.25 137.62,-206.6 142.36,-201.45"/>
<text text-anchor="middle" x="181.05" y="-249.58" font-family="Times,serif" font-size="14.00">y</text>
</g>
<!-- n10 -->
<g id="node11" class="node">
<title>n10</title>
<ellipse fill="none" stroke="black" cx="671.58" cy="-194.28" rx="23.85" ry="23.85"/>
<text text-anchor="middle" x="671.58" y="-189.6" font-family="Times,serif" font-size="14.00">10</text>
</g>
<!-- n9&#45;&gt;n10 -->
<g id="edge15" class="edge">
<title>n9&#45;&gt;n10</title>
<path fill="none" stroke="black" d="M739.55,-285.27C727.48,-269.11 707.8,-242.77 692.71,-222.57"/>
<polygon fill="black" stroke="black" points="695.63,-220.63 686.84,-214.71 690.02,-224.82 695.63,-220.63"/>
<text text-anchor="middle" x="712.38" y="-257.87" font-family="Times,serif" font-size="14.00">c</text>
</g>
<!-- n7&#45;&gt;n7 -->
<g id="edge13" class="edge">
<title>n7&#45;&gt;n7</title>
<path fill="none" stroke="black" d="M455.91,-59.69C465.73,-60.99 474.87,-58.87 474.87,-53.31 474.87,-50.1 471.81,-48.04 467.34,-47.12"/>
<polygon fill="black" stroke="black" points="467.48,-43.62 457.42,-46.96 467.36,-50.62 467.48,-43.62"/>
<text text-anchor="middle" x="479" y="-48.64" font-family="Times,serif" font-size="14.00">e</text>
</g>
<!-- n7&#45;&gt;n8 -->
<g id="edge14" class="edge">
<title>n7&#45;&gt;n8</title>
<path fill="none" stroke="black" d="M456.73,-48.56C474.49,-43.83 502.14,-36.47 523.82,-30.69"/>
<polygon fill="black" stroke="black" points="524.62,-34.1 533.38,-28.15 522.82,-27.34 524.62,-34.1"/>
<text text-anchor="middle" x="487.65" y="-43.58" font-family="Times,serif" font-size="14.00">f</text>
</g>
<!-- n6 -->
<g id="node10" class="node">
<title>n6</title>
<ellipse fill="none" stroke="black" cx="22" cy="-53.31" rx="18" ry="18"/>
<ellipse fill="none" stroke="black" cx="22" cy="-53.31" rx="22" ry="22"/>
<text text-anchor="middle" x="22" y="-48.64" font-family="Times,serif" font-size="14.00">6</text>
</g>
<!-- n5&#45;&gt;n6 -->
<g id="edge12" class="edge">
<title>n5&#45;&gt;n6</title>
<path fill="none" stroke="black" d="M107.28,-169.17C91.45,-147.66 61.74,-107.3 41.91,-80.36"/>
<polygon fill="black" stroke="black" points="44.74,-78.3 35.99,-72.32 39.1,-82.45 44.74,-78.3"/>
<text text-anchor="middle" x="70.85" y="-128.71" font-family="Times,serif" font-size="14.00">z</text>
</g>
<!-- n10&#45;&gt;n1 -->
<g id="edge16" class="edge">
<title>n10&#45;&gt;n1</title>
<path fill="none" stroke="black" d="M660.8,-215.76C649.12,-239.04 630.46,-276.21 617.86,-301.33"/>
<polygon fill="black" stroke="black" points="614.74,-299.75 613.38,-310.26 620.99,-302.89 614.74,-299.75"/>
<text text-anchor="middle" x="635.2" y="-262.5" font-family="Times,serif" font-size="14.00">a</text>
</g>
<!-- n10&#45;&gt;n2 -->
<g id="edge17" class="edge">
<title>n10&#45;&gt;n2</title>
<path fill="none" stroke="black" d="M647.37,-192.77C617.47,-190.9 566.63,-187.73 534.52,-185.73"/>
<polygon fill="black" stroke="black" points="534.93,-182.25 524.73,-185.12 534.49,-189.23 534.93,-182.25"/>
<text text-anchor="middle" x="586.45" y="-193.2" font-family="Times,serif" font-size="14.00">d</text>
</g>
<!-- n11 -->
<!-- n11&#45;&gt;n0 -->
<g id="edge18" class="edge">
<title>n11&#45;&gt;n0</title>
<path fill="none" stroke="black" d="M387.83,-470.83C392.1,-443.15 400.28,-390.11 405.39,-357.03"/>
<polygon fill="black" stroke="black" points="408.82,-357.74 406.88,-347.32 401.9,-356.67 408.82,-357.74"/>
</g>
</g>
</svg>
