<?xml version="1.0" encoding="UTF-8" standalone="no"?>
<!DOCTYPE svg PUBLIC "-//W3C//DTD SVG 1.1//EN"
 "http://www.w3.org/Graphics/SVG/1.1/DTD/svg11.dtd">
<!-- Generated by graphviz version 9.0.0 (0)
 -->
<!-- Title: NFA Pages: 1 -->
<svg width="855pt" height="1052pt"
 viewBox="0.00 0.00 855.18 1052.31" xmlns="http://www.w3.org/2000/svg" xmlns:xlink="http://www.w3.org/1999/xlink">
<g id="graph0" class="graph" transform="scale(1 1) rotate(0) translate(4 1048.31)">
<title>NFA</title>
<polygon fill="white" stroke="none" points="-4,4 -4,-1048.31 851.18,-1048.31 851.18,4 -4,4"/>
<!-- n0 -->
<g id="node1" class="node">
<title>n0</title>
<ellipse fill="none" stroke="black" cx="48.33" cy="-227.9" rx="18" ry="18"/>
<text text-anchor="middle" x="48.33" y="-223.23" font-family="Times,serif" font-size="14.00">0</text>
</g>
<!-- n0&#45;&gt;n0 -->
<g id="edge1" class="edge">
<title>n0&#45;&gt;n0</title>
<path fill="none" stroke="black" d="M64.99,-235.75C74.95,-237.49 84.33,-234.87 84.33,-227.9 84.33,-223.76 81.02,-221.16 76.25,-220.09"/>
<polygon fill="black" stroke="black" points="76.52,-216.59 66.51,-220.06 76.5,-223.59 76.52,-216.59"/>
<text text-anchor="middle" x="88.45" y="-223.23" font-family="Times,serif" font-size="14.00">e</text>
</g>
<!-- n18 -->
<g id="node2" class="node">
<title>n18</title>
<ellipse fill="none" stroke="black" cx="63.33" cy="-132.8" rx="23.85" ry="23.85"/>
<text text-anchor="middle" x="63.33" y="-128.13" font-family="Times,serif" font-size="14.00">18</text>
</g>
<!-- n0&#45;&gt;n18 -->
<g id="edge2" class="edge">
<title>n0&#45;&gt;n18</title>
<path fill="none" stroke="black" d="M51.08,-209.83C52.97,-198.06 55.56,-182.03 57.86,-167.72"/>
<polygon fill="black" stroke="black" points="61.26,-168.66 59.39,-158.23 54.35,-167.54 61.26,-168.66"/>
<text text-anchor="middle" x="59.95" y="-178.6" font-family="Times,serif" font-size="14.00">f</text>
</g>
<!-- n25 -->
<g id="node20" class="node">
<title>n25</title>
<ellipse fill="none" stroke="black" cx="94.33" cy="-27.85" rx="23.85" ry="23.85"/>
<ellipse fill="none" stroke="black" cx="94.33" cy="-27.85" rx="27.85" ry="27.85"/>
<text text-anchor="middle" x="94.33" y="-23.18" font-family="Times,serif" font-size="14.00">25</text>
</g>
<!-- n18&#45;&gt;n25 -->
<g id="edge12" class="edge">
<title>n18&#45;&gt;n25</title>
<path fill="none" stroke="black" d="M70.05,-109.46C73.91,-96.64 78.86,-80.23 83.27,-65.57"/>
<polygon fill="black" stroke="black" points="86.55,-66.81 86.08,-56.23 79.85,-64.79 86.55,-66.81"/>
<text text-anchor="middle" x="85.08" y="-77.65" font-family="Times,serif" font-size="14.00">ε</text>
</g>
<!-- n1 -->
<g id="node3" class="node">
<title>n1</title>
<ellipse fill="none" stroke="black" cx="139.33" cy="-1020.46" rx="18" ry="18"/>
<text text-anchor="middle" x="139.33" y="-1015.78" font-family="Times,serif" font-size="14.00">1</text>
</g>
<!-- n2 -->
<g id="node4" class="node">
<title>n2</title>
<ellipse fill="none" stroke="black" cx="35.33" cy="-733.85" rx="18" ry="18"/>
<text text-anchor="middle" x="35.33" y="-729.18" font-family="Times,serif" font-size="14.00">2</text>
</g>
<!-- n6 -->
<g id="node5" class="node">
<title>n6</title>
<ellipse fill="none" stroke="black" cx="36.33" cy="-418.1" rx="18" ry="18"/>
<text text-anchor="middle" x="36.33" y="-413.43" font-family="Times,serif" font-size="14.00">6</text>
</g>
<!-- n2&#45;&gt;n6 -->
<g id="edge3" class="edge">
<title>n2&#45;&gt;n6</title>
<path fill="none" stroke="black" d="M27.74,-717.28C20.86,-702.21 11.2,-678.51 7.33,-656.75 -3.35,-596.83 -1.18,-580.07 7.33,-519.8 10.94,-494.2 19.48,-465.99 26.36,-445.96"/>
<polygon fill="black" stroke="black" points="29.63,-447.21 29.67,-436.62 23.03,-444.88 29.63,-447.21"/>
<text text-anchor="middle" x="5.08" y="-577.75" font-family="Times,serif" font-size="14.00">ε</text>
</g>
<!-- n4 -->
<g id="node6" class="node">
<title>n4</title>
<ellipse fill="none" stroke="black" cx="34.33" cy="-632.9" rx="18" ry="18"/>
<text text-anchor="middle" x="34.33" y="-628.23" font-family="Times,serif" font-size="14.00">4</text>
</g>
<!-- n2&#45;&gt;n4 -->
<g id="edge4" class="edge">
<title>n2&#45;&gt;n4</title>
<path fill="none" stroke="black" d="M35.15,-715.62C35.01,-700.95 34.79,-679.59 34.62,-662.39"/>
<polygon fill="black" stroke="black" points="38.12,-662.75 34.52,-652.79 31.12,-662.82 38.12,-662.75"/>
<text text-anchor="middle" x="39.45" y="-678.7" font-family="Times,serif" font-size="14.00">a</text>
</g>
<!-- n6&#45;&gt;n2 -->
<g id="edge7" class="edge">
<title>n6&#45;&gt;n2</title>
<path fill="none" stroke="black" d="M41.8,-435.39C43.67,-441.25 45.71,-447.94 47.33,-454.1 70.3,-541.41 76.12,-567.69 61.33,-656.75 58.51,-673.71 52.39,-691.95 46.8,-706.33"/>
<polygon fill="black" stroke="black" points="43.58,-704.94 43.07,-715.52 50.07,-707.57 43.58,-704.94"/>
<text text-anchor="middle" x="74.08" y="-577.75" font-family="Times,serif" font-size="14.00">ε</text>
</g>
<!-- n14 -->
<g id="node9" class="node">
<title>n14</title>
<ellipse fill="none" stroke="black" cx="45.33" cy="-323" rx="23.85" ry="23.85"/>
<text text-anchor="middle" x="45.33" y="-318.33" font-family="Times,serif" font-size="14.00">14</text>
</g>
<!-- n6&#45;&gt;n14 -->
<g id="edge8" class="edge">
<title>n6&#45;&gt;n14</title>
<path fill="none" stroke="black" d="M37.98,-400.03C39.1,-388.38 40.63,-372.55 42.01,-358.35"/>
<polygon fill="black" stroke="black" points="45.49,-358.73 42.97,-348.44 38.52,-358.06 45.49,-358.73"/>
<text text-anchor="middle" x="46.83" y="-368.8" font-family="Times,serif" font-size="14.00">d</text>
</g>
<!-- n3 -->
<g id="node7" class="node">
<title>n3</title>
<ellipse fill="none" stroke="black" cx="34.33" cy="-537.8" rx="18" ry="18"/>
<text text-anchor="middle" x="34.33" y="-533.13" font-family="Times,serif" font-size="14.00">3</text>
</g>
<!-- n4&#45;&gt;n3 -->
<g id="edge6" class="edge">
<title>n4&#45;&gt;n3</title>
<path fill="none" stroke="black" d="M34.33,-614.83C34.33,-601.52 34.33,-582.77 34.33,-567.21"/>
<polygon fill="black" stroke="black" points="37.83,-567.6 34.33,-557.6 30.83,-567.6 37.83,-567.6"/>
<text text-anchor="middle" x="38.83" y="-577.75" font-family="Times,serif" font-size="14.00">b</text>
</g>
<!-- n3&#45;&gt;n6 -->
<g id="edge5" class="edge">
<title>n3&#45;&gt;n6</title>
<path fill="none" stroke="black" d="M34.62,-519.44C34.94,-500.66 35.46,-470.42 35.84,-448.04"/>
<polygon fill="black" stroke="black" points="39.34,-448.11 36.01,-438.05 32.34,-447.99 39.34,-448.11"/>
<text text-anchor="middle" x="40.08" y="-473.28" font-family="Times,serif" font-size="14.00">c</text>
</g>
<!-- n5 -->
<g id="node8" class="node">
<title>n5</title>
<ellipse fill="none" stroke="black" cx="193.33" cy="-1020.46" rx="18" ry="18"/>
<text text-anchor="middle" x="193.33" y="-1015.78" font-family="Times,serif" font-size="14.00">5</text>
</g>
<!-- n14&#45;&gt;n0 -->
<g id="edge11" class="edge">
<title>n14&#45;&gt;n0</title>
<path fill="none" stroke="black" d="M46.07,-298.99C46.47,-286.46 46.98,-270.83 47.41,-257.52"/>
<polygon fill="black" stroke="black" points="50.9,-257.72 47.72,-247.61 43.9,-257.49 50.9,-257.72"/>
<text text-anchor="middle" x="51.08" y="-267.85" font-family="Times,serif" font-size="14.00">ε</text>
</g>
<!-- n7 -->
<g id="node10" class="node">
<title>n7</title>
<ellipse fill="none" stroke="black" cx="247.33" cy="-1020.46" rx="18" ry="18"/>
<text text-anchor="middle" x="247.33" y="-1015.78" font-family="Times,serif" font-size="14.00">7</text>
</g>
<!-- n8 -->
<g id="node11" class="node">
<title>n8</title>
<ellipse fill="none" stroke="black" cx="301.33" cy="-1020.46" rx="18" ry="18"/>
<text text-anchor="middle" x="301.33" y="-1015.78" font-family="Times,serif" font-size="14.00">8</text>
</g>
<!-- n9 -->
<g id="node12" class="node">
<title>n9</title>
<ellipse fill="none" stroke="black" cx="41.33" cy="-834.8" rx="18" ry="18"/>
<text text-anchor="middle" x="41.33" y="-830.13" font-family="Times,serif" font-size="14.00">9</text>
</g>
<!-- n9&#45;&gt;n2 -->
<g id="edge9" class="edge">
<title>n9&#45;&gt;n2</title>
<path fill="none" stroke="black" d="M40.28,-816.57C39.39,-801.9 38.1,-780.54 37.06,-763.34"/>
<polygon fill="black" stroke="black" points="40.57,-763.5 36.47,-753.73 33.58,-763.93 40.57,-763.5"/>
<text text-anchor="middle" x="43.08" y="-779.65" font-family="Times,serif" font-size="14.00">ε</text>
</g>
<!-- n9&#45;&gt;n9 -->
<g id="edge10" class="edge">
<title>n9&#45;&gt;n9</title>
<path fill="none" stroke="black" d="M57.24,-843.52C67.48,-845.79 77.33,-842.89 77.33,-834.8 77.33,-829.88 73.67,-826.87 68.5,-825.79"/>
<polygon fill="black" stroke="black" points="68.66,-822.29 58.76,-826.05 68.84,-829.29 68.66,-822.29"/>
<text text-anchor="middle" x="83.33" y="-830.13" font-family="Times,serif" font-size="14.00">w</text>
</g>
<!-- n10 -->
<g id="node13" class="node">
<title>n10</title>
<ellipse fill="none" stroke="black" cx="361.33" cy="-1020.46" rx="23.85" ry="23.85"/>
<text text-anchor="middle" x="361.33" y="-1015.78" font-family="Times,serif" font-size="14.00">10</text>
</g>
<!-- n11 -->
<g id="node14" class="node">
<title>n11</title>
<ellipse fill="none" stroke="black" cx="427.33" cy="-1020.46" rx="23.85" ry="23.85"/>
<text text-anchor="middle" x="427.33" y="-1015.78" font-family="Times,serif" font-size="14.00">11</text>
</g>
<!-- n12 -->
<g id="node15" class="node">
<title>n12</title>
<ellipse fill="none" stroke="black" cx="493.33" cy="-1020.46" rx="23.85" ry="23.85"/>
<text text-anchor="middle" x="493.33" y="-1015.78" font-family="Times,serif" font-size="14.00">12</text>
</g>
<!-- n13 -->
<g id="node16" class="node">
<title>n13</title>
<ellipse fill="none" stroke="black" cx="559.33" cy="-1020.46" rx="23.85" ry="23.85"/>
<text text-anchor="middle" x="559.33" y="-1015.78" font-family="Times,serif" font-size="14.00">13</text>
</g>
<!-- n15 -->
<g id="node17" class="node">
<title>n15</title>
<ellipse fill="none" stroke="black" cx="625.33" cy="-1020.46" rx="23.85" ry="23.85"/>
<text text-anchor="middle" x="625.33" y="-1015.78" font-family="Times,serif" font-size="14.00">15</text>
</g>
<!-- n16 -->
<g id="node18" class="node">
<title>n16</title>
<ellipse fill="none" stroke="black" cx="691.33" cy="-1020.46" rx="23.85" ry="23.85"/>
<text text-anchor="middle" x="691.33" y="-1015.78" font-family="Times,serif" font-size="14.00">16</text>
</g>
<!-- n17 -->
<g id="node19" class="node">
<title>n17</title>
<ellipse fill="none" stroke="black" cx="757.33" cy="-1020.46" rx="23.85" ry="23.85"/>
<text text-anchor="middle" x="757.33" y="-1015.78" font-family="Times,serif" font-size="14.00">17</text>
</g>
<!-- n19 -->
<g id="node21" class="node">
<title>n19</title>
<ellipse fill="none" stroke="black" cx="131.33" cy="-834.8" rx="23.85" ry="23.85"/>
<text text-anchor="middle" x="131.33" y="-830.13" font-family="Times,serif" font-size="14.00">19</text>
</g>
<!-- n21 -->
<g id="node22" class="node">
<title>n21</title>
<ellipse fill="none" stroke="black" cx="131.33" cy="-733.85" rx="23.85" ry="23.85"/>
<text text-anchor="middle" x="131.33" y="-729.18" font-family="Times,serif" font-size="14.00">21</text>
</g>
<!-- n19&#45;&gt;n21 -->
<g id="edge13" class="edge">
<title>n19&#45;&gt;n21</title>
<path fill="none" stroke="black" d="M131.33,-810.6C131.33,-798.32 131.33,-783 131.33,-769.35"/>
<polygon fill="black" stroke="black" points="134.83,-769.42 131.33,-759.42 127.83,-769.42 134.83,-769.42"/>
<text text-anchor="middle" x="135.45" y="-779.65" font-family="Times,serif" font-size="14.00">x</text>
</g>
<!-- n20 -->
<g id="node23" class="node">
<title>n20</title>
<ellipse fill="none" stroke="black" cx="132.33" cy="-632.9" rx="23.85" ry="23.85"/>
<text text-anchor="middle" x="132.33" y="-628.23" font-family="Times,serif" font-size="14.00">20</text>
</g>
<!-- n21&#45;&gt;n20 -->
<g id="edge15" class="edge">
<title>n21&#45;&gt;n20</title>
<path fill="none" stroke="black" d="M131.56,-709.65C131.69,-697.37 131.84,-682.05 131.98,-668.4"/>
<polygon fill="black" stroke="black" points="135.48,-668.51 132.08,-658.47 128.48,-668.43 135.48,-668.51"/>
<text text-anchor="middle" x="135.45" y="-678.7" font-family="Times,serif" font-size="14.00">y</text>
</g>
<!-- n23 -->
<g id="node24" class="node">
<title>n23</title>
<ellipse fill="none" stroke="black" cx="122.33" cy="-477.95" rx="23.85" ry="23.85"/>
<text text-anchor="middle" x="122.33" y="-473.28" font-family="Times,serif" font-size="14.00">23</text>
</g>
<!-- n20&#45;&gt;n23 -->
<g id="edge14" class="edge">
<title>n20&#45;&gt;n23</title>
<path fill="none" stroke="black" d="M130.81,-608.67C129.15,-583.26 126.47,-542.27 124.57,-513.18"/>
<polygon fill="black" stroke="black" points="128.07,-513.16 123.93,-503.41 121.09,-513.62 128.07,-513.16"/>
<text text-anchor="middle" x="133.08" y="-577.75" font-family="Times,serif" font-size="14.00">z</text>
</g>
<!-- n23&#45;&gt;n25 -->
<g id="edge16" class="edge">
<title>n23&#45;&gt;n25</title>
<path fill="none" stroke="black" d="M121.62,-453.76C121.04,-432.99 120.33,-401.7 120.33,-374.48 120.33,-374.48 120.33,-374.48 120.33,-131.8 120.33,-109.15 114.34,-84.52 108.11,-65.04"/>
<polygon fill="black" stroke="black" points="111.45,-64 104.94,-55.64 104.82,-66.24 111.45,-64"/>
<text text-anchor="middle" x="124.08" y="-267.85" font-family="Times,serif" font-size="14.00">ε</text>
</g>
<!-- n22 -->
<g id="node25" class="node">
<title>n22</title>
<ellipse fill="none" stroke="black" cx="823.33" cy="-1020.46" rx="23.85" ry="23.85"/>
<text text-anchor="middle" x="823.33" y="-1015.78" font-family="Times,serif" font-size="14.00">22</text>
</g>
<!-- n24 -->
<g id="node26" class="node">
<title>n24</title>
<ellipse fill="none" stroke="black" cx="85.33" cy="-935.75" rx="23.85" ry="23.85"/>
<text text-anchor="middle" x="85.33" y="-931.08" font-family="Times,serif" font-size="14.00">24</text>
</g>
<!-- n24&#45;&gt;n9 -->
<g id="edge17" class="edge">
<title>n24&#45;&gt;n9</title>
<path fill="none" stroke="black" d="M76,-913.77C69.27,-898.65 60.16,-878.15 52.96,-861.96"/>
<polygon fill="black" stroke="black" points="56.21,-860.66 48.95,-852.95 49.82,-863.51 56.21,-860.66"/>
<text text-anchor="middle" x="70.08" y="-880.6" font-family="Times,serif" font-size="14.00">ε</text>
</g>
<!-- n24&#45;&gt;n19 -->
<g id="edge18" class="edge">
<title>n24&#45;&gt;n19</title>
<path fill="none" stroke="black" d="M95.08,-913.77C101.43,-900.13 109.81,-882.1 116.91,-866.81"/>
<polygon fill="black" stroke="black" points="119.91,-868.67 120.95,-858.13 113.56,-865.72 119.91,-868.67"/>
<text text-anchor="middle" x="115.08" y="-880.6" font-family="Times,serif" font-size="14.00">ε</text>
</g>
<!-- n26 -->
<!-- n26&#45;&gt;n24 -->
<g id="edge19" class="edge">
<title>n26&#45;&gt;n24</title>
<path fill="none" stroke="black" d="M85.33,-1002.32C85.33,-993.29 85.33,-981.87 85.33,-971.11"/>
<polygon fill="black" stroke="black" points="88.83,-971.34 85.33,-961.34 81.83,-971.34 88.83,-971.34"/>
</g>
</g>
</svg>
