<?xml version="1.0" encoding="UTF-8" standalone="no"?>
<!DOCTYPE svg PUBLIC "-//W3C//DTD SVG 1.1//EN"
 "http://www.w3.org/Graphics/SVG/1.1/DTD/svg11.dtd">
<!-- Generated by graphviz version 10.0.1 (0)
 -->
<!-- Title: NFA Pages: 1 -->
<svg width="510pt" height="609pt"
 viewBox="0.00 0.00 509.70 608.82" xmlns="http://www.w3.org/2000/svg" xmlns:xlink="http://www.w3.org/1999/xlink">
<g id="graph0" class="graph" transform="scale(1 1) rotate(0) translate(4 604.82)">
<title>NFA</title>
<polygon fill="white" stroke="none" points="-4,4 -4,-604.82 505.7,-604.82 505.7,4 -4,4"/>
<!-- n0 -->
<g id="node1" class="node">
<title>n0</title>
<ellipse fill="none" stroke="black" cx="445.45" cy="-194.8" rx="18" ry="18"/>
<text text-anchor="middle" x="445.45" y="-190.13" font-family="Times,serif" font-size="14.00">0</text>
</g>
<!-- n0&#45;&gt;n0 -->
<g id="edge1" class="edge">
<title>n0&#45;&gt;n0</title>
<path fill="none" stroke="black" d="M462.49,-201.18C472.31,-202.48 481.45,-200.36 481.45,-194.8 481.45,-191.59 478.39,-189.53 473.92,-188.61"/>
<polygon fill="black" stroke="black" points="474.05,-185.11 464,-188.45 473.94,-192.11 474.05,-185.11"/>
<text text-anchor="middle" x="491.57" y="-190.13" font-family="Times,serif" font-size="14.00">a&#45;c</text>
</g>
<!-- n9 -->
<g id="node2" class="node">
<title>n9</title>
<ellipse fill="none" stroke="black" cx="318.17" cy="-121.01" rx="18" ry="18"/>
<ellipse fill="none" stroke="black" cx="318.17" cy="-121.01" rx="22" ry="22"/>
<text text-anchor="middle" x="318.17" y="-116.33" font-family="Times,serif" font-size="14.00">9</text>
</g>
<!-- n0&#45;&gt;n9 -->
<g id="edge2" class="edge">
<title>n0&#45;&gt;n9</title>
<path fill="none" stroke="black" d="M429.59,-185.6C409.09,-173.72 373,-152.8 347.46,-137.99"/>
<polygon fill="black" stroke="black" points="349.28,-135 338.88,-133.01 345.77,-141.06 349.28,-135"/>
<text text-anchor="middle" x="381.77" y="-165.75" font-family="Times,serif" font-size="14.00">f&#45;i</text>
</g>
<!-- n15 -->
<g id="node11" class="node">
<title>n15</title>
<ellipse fill="none" stroke="black" cx="177.96" cy="-27.85" rx="23.85" ry="23.85"/>
<ellipse fill="none" stroke="black" cx="177.96" cy="-27.85" rx="27.85" ry="27.85"/>
<text text-anchor="middle" x="177.96" y="-23.18" font-family="Times,serif" font-size="14.00">15</text>
</g>
<!-- n9&#45;&gt;n15 -->
<g id="edge8" class="edge">
<title>n9&#45;&gt;n15</title>
<path fill="none" stroke="black" d="M299.55,-108.64C276.89,-93.58 238.25,-67.91 210.61,-49.54"/>
<polygon fill="black" stroke="black" points="212.86,-46.83 202.59,-44.22 208.99,-52.67 212.86,-46.83"/>
<text text-anchor="middle" x="251.33" y="-83.04" font-family="Times,serif" font-size="14.00">ε</text>
</g>
<!-- n1 -->
<g id="node3" class="node">
<title>n1</title>
<ellipse fill="none" stroke="black" cx="270" cy="-207" rx="18" ry="18"/>
<text text-anchor="middle" x="270" y="-202.32" font-family="Times,serif" font-size="14.00">1</text>
</g>
<!-- n2 -->
<g id="node4" class="node">
<title>n2</title>
<ellipse fill="none" stroke="black" cx="315.83" cy="-289.38" rx="18" ry="18"/>
<text text-anchor="middle" x="315.83" y="-284.7" font-family="Times,serif" font-size="14.00">2</text>
</g>
<!-- n2&#45;&gt;n0 -->
<g id="edge3" class="edge">
<title>n2&#45;&gt;n0</title>
<path fill="none" stroke="black" d="M332.81,-282.48C356.62,-268.51 399.64,-237.49 425.11,-216.25"/>
<polygon fill="black" stroke="black" points="427.19,-219.08 432.49,-209.91 422.62,-213.78 427.19,-219.08"/>
<text text-anchor="middle" x="375.21" y="-253.31" font-family="Times,serif" font-size="14.00">ε</text>
</g>
<!-- n2&#45;&gt;n0 -->
<g id="edge4" class="edge">
<title>n2&#45;&gt;n0</title>
<path fill="none" stroke="black" d="M327.58,-275.31C348.15,-256.9 390.81,-225.4 418.81,-207.62"/>
<polygon fill="black" stroke="black" points="420.42,-210.75 427.11,-202.54 416.76,-204.78 420.42,-210.75"/>
<text text-anchor="middle" x="363.07" y="-228.17" font-family="Times,serif" font-size="14.00">a&#45;c</text>
</g>
<!-- n2&#45;&gt;n9 -->
<g id="edge5" class="edge">
<title>n2&#45;&gt;n9</title>
<path fill="none" stroke="black" d="M316.08,-271.04C316.47,-243.09 317.22,-189.4 317.7,-154.4"/>
<polygon fill="black" stroke="black" points="321.2,-154.87 317.84,-144.83 314.2,-154.78 321.2,-154.87"/>
<text text-anchor="middle" x="310.14" y="-216.67" font-family="Times,serif" font-size="14.00">f&#45;i</text>
</g>
<!-- n2&#45;&gt;n2 -->
<g id="edge6" class="edge">
<title>n2&#45;&gt;n2</title>
<path fill="none" stroke="black" d="M332.86,-295.76C342.68,-297.06 351.83,-294.93 351.83,-289.38 351.83,-286.17 348.77,-284.1 344.3,-283.18"/>
<polygon fill="black" stroke="black" points="344.43,-279.68 334.38,-283.02 344.32,-286.68 344.43,-279.68"/>
<text text-anchor="middle" x="357.83" y="-284.7" font-family="Times,serif" font-size="14.00">w</text>
</g>
<!-- n3 -->
<g id="node5" class="node">
<title>n3</title>
<ellipse fill="none" stroke="black" cx="144" cy="-207" rx="18" ry="18"/>
<text text-anchor="middle" x="144" y="-202.32" font-family="Times,serif" font-size="14.00">3</text>
</g>
<!-- n4 -->
<g id="node6" class="node">
<title>n4</title>
<ellipse fill="none" stroke="black" cx="345.29" cy="-417.08" rx="18" ry="18"/>
<text text-anchor="middle" x="345.29" y="-412.4" font-family="Times,serif" font-size="14.00">4</text>
</g>
<!-- n4&#45;&gt;n2 -->
<g id="edge7" class="edge">
<title>n4&#45;&gt;n2</title>
<path fill="none" stroke="black" d="M341.13,-399.05C336.28,-378.04 328.21,-343.04 322.48,-318.23"/>
<polygon fill="black" stroke="black" points="325.96,-317.74 320.3,-308.79 319.14,-319.32 325.96,-317.74"/>
<text text-anchor="middle" x="319.06" y="-362.59" font-family="Times,serif" font-size="14.00">any</text>
</g>
<!-- n5 -->
<g id="node7" class="node">
<title>n5</title>
<ellipse fill="none" stroke="black" cx="417" cy="-312" rx="18" ry="18"/>
<text text-anchor="middle" x="417" y="-307.32" font-family="Times,serif" font-size="14.00">5</text>
</g>
<!-- n6 -->
<g id="node8" class="node">
<title>n6</title>
<ellipse fill="none" stroke="black" cx="417" cy="-396" rx="18" ry="18"/>
<text text-anchor="middle" x="417" y="-391.32" font-family="Times,serif" font-size="14.00">6</text>
</g>
<!-- n7 -->
<g id="node9" class="node">
<title>n7</title>
<ellipse fill="none" stroke="black" cx="417" cy="-480" rx="18" ry="18"/>
<text text-anchor="middle" x="417" y="-475.32" font-family="Times,serif" font-size="14.00">7</text>
</g>
<!-- n8 -->
<g id="node10" class="node">
<title>n8</title>
<ellipse fill="none" stroke="black" cx="270" cy="-480" rx="18" ry="18"/>
<text text-anchor="middle" x="270" y="-475.32" font-family="Times,serif" font-size="14.00">8</text>
</g>
<!-- n10 -->
<g id="node12" class="node">
<title>n10</title>
<ellipse fill="none" stroke="black" cx="54.57" cy="-289.38" rx="23.85" ry="23.85"/>
<text text-anchor="middle" x="54.57" y="-284.7" font-family="Times,serif" font-size="14.00">10</text>
</g>
<!-- n11 -->
<g id="node13" class="node">
<title>n11</title>
<ellipse fill="none" stroke="black" cx="34.81" cy="-123.84" rx="23.85" ry="23.85"/>
<ellipse fill="none" stroke="black" cx="34.81" cy="-123.84" rx="27.85" ry="27.85"/>
<text text-anchor="middle" x="34.81" y="-119.17" font-family="Times,serif" font-size="14.00">11</text>
</g>
<!-- n10&#45;&gt;n11 -->
<g id="edge9" class="edge">
<title>n10&#45;&gt;n11</title>
<path fill="none" stroke="black" d="M56.62,-265.43C55.53,-238.35 50.54,-193.89 45.23,-162.01"/>
<polygon fill="black" stroke="black" points="48.71,-161.62 43.53,-152.38 41.82,-162.84 48.71,-161.62"/>
<text text-anchor="middle" x="46.8" y="-217.67" font-family="Times,serif" font-size="14.00">y</text>
</g>
<!-- n10&#45;&gt;n11 -->
<g id="edge10" class="edge">
<title>n10&#45;&gt;n11</title>
<path fill="none" stroke="black" d="M46.94,-266.59C41.62,-240.01 36,-195.63 33.67,-163.39"/>
<polygon fill="black" stroke="black" points="37.17,-163.39 33.05,-153.63 30.19,-163.83 37.17,-163.39"/>
<text text-anchor="middle" x="36.55" y="-218.94" font-family="Times,serif" font-size="14.00">z</text>
</g>
<!-- n11&#45;&gt;n15 -->
<g id="edge11" class="edge">
<title>n11&#45;&gt;n15</title>
<path fill="none" stroke="black" d="M58.13,-108.21C81.84,-92.31 118.77,-67.54 145.36,-49.71"/>
<polygon fill="black" stroke="black" points="147.04,-52.8 153.4,-44.32 143.14,-46.99 147.04,-52.8"/>
<text text-anchor="middle" x="98" y="-82.91" font-family="Times,serif" font-size="14.00">ε</text>
</g>
<!-- n12 -->
<g id="node14" class="node">
<title>n12</title>
<ellipse fill="none" stroke="black" cx="23.85" cy="-417.08" rx="23.85" ry="23.85"/>
<text text-anchor="middle" x="23.85" y="-412.4" font-family="Times,serif" font-size="14.00">12</text>
</g>
<!-- n12&#45;&gt;n10 -->
<g id="edge12" class="edge">
<title>n12&#45;&gt;n10</title>
<path fill="none" stroke="black" d="M29.48,-393.66C34.2,-374.04 41,-345.76 46.33,-323.6"/>
<polygon fill="black" stroke="black" points="49.68,-324.66 48.61,-314.12 42.87,-323.03 49.68,-324.66"/>
<text text-anchor="middle" x="33.78" y="-362.58" font-family="Times,serif" font-size="14.00">x</text>
</g>
<!-- n13 -->
<g id="node15" class="node">
<title>n13</title>
<ellipse fill="none" stroke="black" cx="212.85" cy="-296.85" rx="23.85" ry="23.85"/>
<text text-anchor="middle" x="212.85" y="-292.18" font-family="Times,serif" font-size="14.00">13</text>
</g>
<!-- n14 -->
<g id="node16" class="node">
<title>n14</title>
<ellipse fill="none" stroke="black" cx="186.72" cy="-417.08" rx="23.85" ry="23.85"/>
<text text-anchor="middle" x="186.72" y="-412.4" font-family="Times,serif" font-size="14.00">14</text>
</g>
<!-- n14&#45;&gt;n2 -->
<g id="edge15" class="edge">
<title>n14&#45;&gt;n2</title>
<path fill="none" stroke="black" d="M209.04,-407.98C236.44,-388.49 280.98,-344.81 303.2,-315.98"/>
<polygon fill="black" stroke="black" points="305.91,-318.2 308.94,-308.05 300.24,-314.1 305.91,-318.2"/>
<text text-anchor="middle" x="230.25" y="-365.93" font-family="Times,serif" font-size="14.00">0x01&#45;w</text>
</g>
<!-- n14&#45;&gt;n2 -->
<g id="edge16" class="edge">
<title>n14&#45;&gt;n2</title>
<path fill="none" stroke="black" d="M196.06,-394.86C215.85,-367.67 260.01,-323.61 289.09,-301.71"/>
<polygon fill="black" stroke="black" points="290.94,-304.69 297.08,-296.06 286.89,-298.98 290.94,-304.69"/>
<text text-anchor="middle" x="238.45" y="-334.99" font-family="Times,serif" font-size="14.00">x</text>
</g>
<!-- n14&#45;&gt;n2 -->
<g id="edge18" class="edge">
<title>n14&#45;&gt;n2</title>
<path fill="none" stroke="black" d="M203.86,-400.12C227.41,-376.84 269.69,-335.01 295.02,-309.96"/>
<polygon fill="black" stroke="black" points="297.18,-312.74 301.83,-303.22 292.26,-307.77 297.18,-312.74"/>
<text text-anchor="middle" x="269.32" y="-341.74" font-family="Times,serif" font-size="14.00">y&#45;0xff</text>
</g>
<!-- n14&#45;&gt;n4 -->
<g id="edge13" class="edge">
<title>n14&#45;&gt;n4</title>
<path fill="none" stroke="black" d="M210.8,-417.08C238.95,-417.08 285.52,-417.08 315.8,-417.08"/>
<polygon fill="black" stroke="black" points="315.41,-420.58 325.41,-417.08 315.41,-413.58 315.41,-420.58"/>
<text text-anchor="middle" x="259.55" y="-421.03" font-family="Times,serif" font-size="14.00">ε</text>
</g>
<!-- n14&#45;&gt;n10 -->
<g id="edge17" class="edge">
<title>n14&#45;&gt;n10</title>
<path fill="none" stroke="black" d="M169.44,-400.38C146.59,-378.3 106.14,-339.21 79.85,-313.81"/>
<polygon fill="black" stroke="black" points="82.56,-311.56 72.94,-307.13 77.69,-316.59 82.56,-311.56"/>
<text text-anchor="middle" x="120.52" y="-361.05" font-family="Times,serif" font-size="14.00">x</text>
</g>
<!-- n14&#45;&gt;n12 -->
<g id="edge14" class="edge">
<title>n14&#45;&gt;n12</title>
<path fill="none" stroke="black" d="M162.69,-417.08C135.38,-417.08 90.56,-417.08 59.25,-417.08"/>
<polygon fill="black" stroke="black" points="59.49,-413.58 49.49,-417.08 59.49,-420.58 59.49,-413.58"/>
<text text-anchor="middle" x="107.22" y="-421.03" font-family="Times,serif" font-size="14.00">ε</text>
</g>
<!-- n16 -->
<!-- n16&#45;&gt;n14 -->
<g id="edge19" class="edge">
<title>n16&#45;&gt;n14</title>
<path fill="none" stroke="black" d="M187.39,-564.45C187.27,-537.61 187.04,-487.14 186.88,-452.83"/>
<polygon fill="black" stroke="black" points="190.38,-452.93 186.84,-442.94 183.38,-452.96 190.38,-452.93"/>
</g>
</g>
</svg>
