<?xml version="1.0" encoding="UTF-8" standalone="no"?>
<!DOCTYPE svg PUBLIC "-//W3C//DTD SVG 1.1//EN"
 "http://www.w3.org/Graphics/SVG/1.1/DTD/svg11.dtd">
<!-- Generated by graphviz version 9.0.0 (0)
 -->
<!-- Title: NFA Pages: 1 -->
<svg width="674pt" height="623pt"
 viewBox="0.00 0.00 674.14 623.46" xmlns="http://www.w3.org/2000/svg" xmlns:xlink="http://www.w3.org/1999/xlink">
<g id="graph0" class="graph" transform="scale(1 1) rotate(0) translate(4 619.46)">
<title>NFA</title>
<polygon fill="white" stroke="none" points="-4,4 -4,-619.46 670.14,-619.46 670.14,4 -4,4"/>
<!-- n0 -->
<g id="node1" class="node">
<title>n0</title>
<ellipse fill="none" stroke="black" cx="208.21" cy="-137.27" rx="18" ry="18"/>
<text text-anchor="middle" x="208.21" y="-132.59" font-family="Times,serif" font-size="14.00">0</text>
</g>
<!-- n0&#45;&gt;n0 -->
<g id="edge1" class="edge">
<title>n0&#45;&gt;n0</title>
<path fill="none" stroke="black" d="M225.25,-143.64C235.07,-144.95 244.21,-142.82 244.21,-137.27 244.21,-134.05 241.16,-131.99 236.68,-131.07"/>
<polygon fill="black" stroke="black" points="236.82,-127.57 226.76,-130.91 236.71,-134.57 236.82,-127.57"/>
<text text-anchor="middle" x="248.34" y="-132.59" font-family="Times,serif" font-size="14.00">e</text>
</g>
<!-- n18 -->
<g id="node2" class="node">
<title>n18</title>
<ellipse fill="none" stroke="black" cx="332.03" cy="-137.27" rx="23.85" ry="23.85"/>
<ellipse fill="none" stroke="black" cx="332.03" cy="-137.27" rx="27.85" ry="27.85"/>
<text text-anchor="middle" x="332.03" y="-132.59" font-family="Times,serif" font-size="14.00">18</text>
</g>
<!-- n0&#45;&gt;n18 -->
<g id="edge2" class="edge">
<title>n0&#45;&gt;n18</title>
<path fill="none" stroke="black" d="M226.48,-137.27C243.82,-137.27 270.44,-137.27 292.61,-137.27"/>
<polygon fill="black" stroke="black" points="292.54,-140.77 302.54,-137.27 292.54,-133.77 292.54,-140.77"/>
<text text-anchor="middle" x="256.92" y="-141.22" font-family="Times,serif" font-size="14.00">f</text>
</g>
<!-- n25 -->
<g id="node20" class="node">
<title>n25</title>
<ellipse fill="none" stroke="black" cx="451.31" cy="-27.85" rx="23.85" ry="23.85"/>
<ellipse fill="none" stroke="black" cx="451.31" cy="-27.85" rx="27.85" ry="27.85"/>
<text text-anchor="middle" x="451.31" y="-23.18" font-family="Times,serif" font-size="14.00">25</text>
</g>
<!-- n18&#45;&gt;n25 -->
<g id="edge18" class="edge">
<title>n18&#45;&gt;n25</title>
<path fill="none" stroke="black" d="M352.81,-118.21C372.05,-100.56 400.85,-74.14 422.35,-54.42"/>
<polygon fill="black" stroke="black" points="424.66,-57.05 429.66,-47.71 419.92,-51.89 424.66,-57.05"/>
<text text-anchor="middle" x="383.83" y="-90.26" font-family="Times,serif" font-size="14.00">ε</text>
</g>
<!-- n1 -->
<g id="node3" class="node">
<title>n1</title>
<ellipse fill="none" stroke="black" cx="458" cy="-518" rx="18" ry="18"/>
<text text-anchor="middle" x="458" y="-513.33" font-family="Times,serif" font-size="14.00">1</text>
</g>
<!-- n2 -->
<g id="node4" class="node">
<title>n2</title>
<ellipse fill="none" stroke="black" cx="141.36" cy="-438.49" rx="18" ry="18"/>
<text text-anchor="middle" x="141.36" y="-433.82" font-family="Times,serif" font-size="14.00">2</text>
</g>
<!-- n6 -->
<g id="node5" class="node">
<title>n6</title>
<ellipse fill="none" stroke="black" cx="91.96" cy="-346.21" rx="18" ry="18"/>
<text text-anchor="middle" x="91.96" y="-341.53" font-family="Times,serif" font-size="14.00">6</text>
</g>
<!-- n2&#45;&gt;n6 -->
<g id="edge3" class="edge">
<title>n2&#45;&gt;n6</title>
<path fill="none" stroke="black" d="M137.75,-420.82C131.81,-406.06 120.9,-385 111.1,-368.99"/>
<polygon fill="black" stroke="black" points="114.05,-367.11 105.7,-360.59 108.16,-370.9 114.05,-367.11"/>
<text text-anchor="middle" x="120.67" y="-398.85" font-family="Times,serif" font-size="14.00">ε</text>
</g>
<!-- n4 -->
<g id="node6" class="node">
<title>n4</title>
<ellipse fill="none" stroke="black" cx="199.7" cy="-346.21" rx="18" ry="18"/>
<text text-anchor="middle" x="199.7" y="-341.53" font-family="Times,serif" font-size="14.00">4</text>
</g>
<!-- n2&#45;&gt;n4 -->
<g id="edge4" class="edge">
<title>n2&#45;&gt;n4</title>
<path fill="none" stroke="black" d="M150.99,-423.25C159.89,-409.18 173.28,-388 183.77,-371.41"/>
<polygon fill="black" stroke="black" points="186.66,-373.38 189.05,-363.06 180.75,-369.64 186.66,-373.38"/>
<text text-anchor="middle" x="163.25" y="-401.28" font-family="Times,serif" font-size="14.00">a</text>
</g>
<!-- n14 -->
<g id="node7" class="node">
<title>n14</title>
<ellipse fill="none" stroke="black" cx="266.7" cy="-294.44" rx="23.85" ry="23.85"/>
<text text-anchor="middle" x="266.7" y="-289.76" font-family="Times,serif" font-size="14.00">14</text>
</g>
<!-- n2&#45;&gt;n14 -->
<g id="edge5" class="edge">
<title>n2&#45;&gt;n14</title>
<path fill="none" stroke="black" d="M153.38,-424.68C174.12,-400.84 216.99,-351.57 243.64,-320.94"/>
<polygon fill="black" stroke="black" points="246.11,-323.43 250.03,-313.59 240.83,-318.84 246.11,-323.43"/>
<text text-anchor="middle" x="194.01" y="-376.76" font-family="Times,serif" font-size="14.00">d</text>
</g>
<!-- n6&#45;&gt;n2 -->
<g id="edge8" class="edge">
<title>n6&#45;&gt;n2</title>
<path fill="none" stroke="black" d="M95.56,-363.88C101.5,-378.64 112.42,-399.7 122.22,-415.71"/>
<polygon fill="black" stroke="black" points="119.26,-417.59 127.61,-424.11 125.15,-413.8 119.26,-417.59"/>
<text text-anchor="middle" x="105.14" y="-393.74" font-family="Times,serif" font-size="14.00">ε</text>
</g>
<!-- n6&#45;&gt;n4 -->
<g id="edge9" class="edge">
<title>n6&#45;&gt;n4</title>
<path fill="none" stroke="black" d="M110.23,-346.21C126.56,-346.21 150.79,-346.21 169.92,-346.21"/>
<polygon fill="black" stroke="black" points="169.82,-349.71 179.82,-346.21 169.82,-342.71 169.82,-349.71"/>
<text text-anchor="middle" x="135.95" y="-350.16" font-family="Times,serif" font-size="14.00">a</text>
</g>
<!-- n6&#45;&gt;n14 -->
<g id="edge10" class="edge">
<title>n6&#45;&gt;n14</title>
<path fill="none" stroke="black" d="M109.67,-340.96C138.45,-332.43 195.84,-315.43 232.7,-304.51"/>
<polygon fill="black" stroke="black" points="233.38,-307.96 241.97,-301.76 231.39,-301.25 233.38,-307.96"/>
<text text-anchor="middle" x="166.69" y="-326.68" font-family="Times,serif" font-size="14.00">d</text>
</g>
<!-- n3 -->
<g id="node8" class="node">
<title>n3</title>
<ellipse fill="none" stroke="black" cx="18" cy="-286.55" rx="18" ry="18"/>
<text text-anchor="middle" x="18" y="-281.88" font-family="Times,serif" font-size="14.00">3</text>
</g>
<!-- n4&#45;&gt;n3 -->
<g id="edge7" class="edge">
<title>n4&#45;&gt;n3</title>
<path fill="none" stroke="black" d="M182.28,-340.49C150.8,-330.15 84.21,-308.29 46.18,-295.8"/>
<polygon fill="black" stroke="black" points="47.4,-292.52 36.81,-292.73 45.22,-299.17 47.4,-292.52"/>
<text text-anchor="middle" x="109.73" y="-304.84" font-family="Times,serif" font-size="14.00">b</text>
</g>
<!-- n14&#45;&gt;n0 -->
<g id="edge15" class="edge">
<title>n14&#45;&gt;n0</title>
<path fill="none" stroke="black" d="M263.01,-270.55C254.72,-241.52 236.73,-192.76 223.4,-162.94"/>
<polygon fill="black" stroke="black" points="226.58,-161.48 219.19,-153.89 220.23,-164.44 226.58,-161.48"/>
<text text-anchor="middle" x="239.45" y="-220.7" font-family="Times,serif" font-size="14.00">ε</text>
</g>
<!-- n14&#45;&gt;n0 -->
<g id="edge16" class="edge">
<title>n14&#45;&gt;n0</title>
<path fill="none" stroke="black" d="M253.88,-273.95C241.17,-246.56 222.92,-197.9 213.51,-166.62"/>
<polygon fill="black" stroke="black" points="216.88,-165.68 210.78,-157.02 210.15,-167.6 216.88,-165.68"/>
<text text-anchor="middle" x="229.57" y="-224.24" font-family="Times,serif" font-size="14.00">e</text>
</g>
<!-- n14&#45;&gt;n18 -->
<g id="edge17" class="edge">
<title>n14&#45;&gt;n18</title>
<path fill="none" stroke="black" d="M275.92,-272.25C286.54,-246.71 304.15,-204.35 316.81,-173.89"/>
<polygon fill="black" stroke="black" points="320.04,-175.24 320.64,-164.66 313.57,-172.55 320.04,-175.24"/>
<text text-anchor="middle" x="293.74" y="-227.02" font-family="Times,serif" font-size="14.00">f</text>
</g>
<!-- n3&#45;&gt;n6 -->
<g id="edge6" class="edge">
<title>n3&#45;&gt;n6</title>
<path fill="none" stroke="black" d="M32.26,-298.05C42.69,-306.47 57.07,-318.07 69.1,-327.77"/>
<polygon fill="black" stroke="black" points="66.58,-330.23 76.56,-333.79 70.98,-324.79 66.58,-330.23"/>
<text text-anchor="middle" x="46.93" y="-316.86" font-family="Times,serif" font-size="14.00">c</text>
</g>
<!-- n5 -->
<g id="node9" class="node">
<title>n5</title>
<ellipse fill="none" stroke="black" cx="338" cy="-518" rx="18" ry="18"/>
<text text-anchor="middle" x="338" y="-513.33" font-family="Times,serif" font-size="14.00">5</text>
</g>
<!-- n7 -->
<g id="node10" class="node">
<title>n7</title>
<ellipse fill="none" stroke="black" cx="258" cy="-518" rx="18" ry="18"/>
<text text-anchor="middle" x="258" y="-513.33" font-family="Times,serif" font-size="14.00">7</text>
</g>
<!-- n8 -->
<g id="node11" class="node">
<title>n8</title>
<ellipse fill="none" stroke="black" cx="178" cy="-518" rx="18" ry="18"/>
<text text-anchor="middle" x="178" y="-513.33" font-family="Times,serif" font-size="14.00">8</text>
</g>
<!-- n9 -->
<g id="node12" class="node">
<title>n9</title>
<ellipse fill="none" stroke="black" cx="262.9" cy="-438.49" rx="18" ry="18"/>
<text text-anchor="middle" x="262.9" y="-433.82" font-family="Times,serif" font-size="14.00">9</text>
</g>
<!-- n9&#45;&gt;n2 -->
<g id="edge11" class="edge">
<title>n9&#45;&gt;n2</title>
<path fill="none" stroke="black" d="M244.44,-438.49C224.96,-438.49 193.98,-438.49 171.05,-438.49"/>
<polygon fill="black" stroke="black" points="171.11,-434.99 161.11,-438.49 171.11,-441.99 171.11,-434.99"/>
<text text-anchor="middle" x="204" y="-442.44" font-family="Times,serif" font-size="14.00">ε</text>
</g>
<!-- n9&#45;&gt;n4 -->
<g id="edge12" class="edge">
<title>n9&#45;&gt;n4</title>
<path fill="none" stroke="black" d="M252.46,-423.25C242.68,-408.96 227.87,-387.34 216.44,-370.64"/>
<polygon fill="black" stroke="black" points="219.55,-368.99 211.01,-362.72 213.77,-372.94 219.55,-368.99"/>
<text text-anchor="middle" x="230.33" y="-400.9" font-family="Times,serif" font-size="14.00">a</text>
</g>
<!-- n9&#45;&gt;n14 -->
<g id="edge13" class="edge">
<title>n9&#45;&gt;n14</title>
<path fill="none" stroke="black" d="M263.38,-420.25C263.98,-397.62 265.01,-358.55 265.76,-329.94"/>
<polygon fill="black" stroke="black" points="269.25,-330.38 266.02,-320.29 262.26,-330.2 269.25,-330.38"/>
<text text-anchor="middle" x="260.07" y="-379.04" font-family="Times,serif" font-size="14.00">d</text>
</g>
<!-- n9&#45;&gt;n9 -->
<g id="edge14" class="edge">
<title>n9&#45;&gt;n9</title>
<path fill="none" stroke="black" d="M279.94,-444.87C289.76,-446.17 298.9,-444.05 298.9,-438.49 298.9,-435.28 295.85,-433.22 291.37,-432.3"/>
<polygon fill="black" stroke="black" points="291.51,-428.8 281.45,-432.14 291.39,-435.8 291.51,-428.8"/>
<text text-anchor="middle" x="304.9" y="-433.82" font-family="Times,serif" font-size="14.00">w</text>
</g>
<!-- n10 -->
<g id="node13" class="node">
<title>n10</title>
<ellipse fill="none" stroke="black" cx="363.85" cy="-343.85" rx="23.85" ry="23.85"/>
<text text-anchor="middle" x="363.85" y="-339.18" font-family="Times,serif" font-size="14.00">10</text>
</g>
<!-- n11 -->
<g id="node14" class="node">
<title>n11</title>
<ellipse fill="none" stroke="black" cx="363.85" cy="-263.85" rx="23.85" ry="23.85"/>
<text text-anchor="middle" x="363.85" y="-259.18" font-family="Times,serif" font-size="14.00">11</text>
</g>
<!-- n12 -->
<g id="node15" class="node">
<title>n12</title>
<ellipse fill="none" stroke="black" cx="443.85" cy="-263.85" rx="23.85" ry="23.85"/>
<text text-anchor="middle" x="443.85" y="-259.18" font-family="Times,serif" font-size="14.00">12</text>
</g>
<!-- n13 -->
<g id="node16" class="node">
<title>n13</title>
<ellipse fill="none" stroke="black" cx="443.85" cy="-343.85" rx="23.85" ry="23.85"/>
<text text-anchor="middle" x="443.85" y="-339.18" font-family="Times,serif" font-size="14.00">13</text>
</g>
<!-- n15 -->
<g id="node17" class="node">
<title>n15</title>
<ellipse fill="none" stroke="black" cx="423.85" cy="-183.85" rx="23.85" ry="23.85"/>
<text text-anchor="middle" x="423.85" y="-179.18" font-family="Times,serif" font-size="14.00">15</text>
</g>
<!-- n16 -->
<g id="node18" class="node">
<title>n16</title>
<ellipse fill="none" stroke="black" cx="503.85" cy="-183.85" rx="23.85" ry="23.85"/>
<text text-anchor="middle" x="503.85" y="-179.18" font-family="Times,serif" font-size="14.00">16</text>
</g>
<!-- n17 -->
<g id="node19" class="node">
<title>n17</title>
<ellipse fill="none" stroke="black" cx="523.85" cy="-263.85" rx="23.85" ry="23.85"/>
<text text-anchor="middle" x="523.85" y="-259.18" font-family="Times,serif" font-size="14.00">17</text>
</g>
<!-- n19 -->
<g id="node21" class="node">
<title>n19</title>
<ellipse fill="none" stroke="black" cx="516.83" cy="-438.49" rx="23.85" ry="23.85"/>
<text text-anchor="middle" x="516.83" y="-433.82" font-family="Times,serif" font-size="14.00">19</text>
</g>
<!-- n21 -->
<g id="node22" class="node">
<title>n21</title>
<ellipse fill="none" stroke="black" cx="526.27" cy="-346.21" rx="23.85" ry="23.85"/>
<text text-anchor="middle" x="526.27" y="-341.53" font-family="Times,serif" font-size="14.00">21</text>
</g>
<!-- n19&#45;&gt;n21 -->
<g id="edge19" class="edge">
<title>n19&#45;&gt;n21</title>
<path fill="none" stroke="black" d="M519.26,-414.73C520.3,-404.58 521.53,-392.53 522.67,-381.38"/>
<polygon fill="black" stroke="black" points="526.13,-382.02 523.66,-371.72 519.16,-381.31 526.13,-382.02"/>
<text text-anchor="middle" x="516.84" y="-384.75" font-family="Times,serif" font-size="14.00">x</text>
</g>
<!-- n20 -->
<g id="node23" class="node">
<title>n20</title>
<ellipse fill="none" stroke="black" cx="642.29" cy="-230.89" rx="23.85" ry="23.85"/>
<text text-anchor="middle" x="642.29" y="-226.21" font-family="Times,serif" font-size="14.00">20</text>
</g>
<!-- n21&#45;&gt;n20 -->
<g id="edge21" class="edge">
<title>n21&#45;&gt;n20</title>
<path fill="none" stroke="black" d="M543.39,-329.19C562.84,-309.86 594.77,-278.12 617.07,-255.95"/>
<polygon fill="black" stroke="black" points="619.4,-258.57 624.03,-249.04 614.47,-253.61 619.4,-258.57"/>
<text text-anchor="middle" x="576.1" y="-296.52" font-family="Times,serif" font-size="14.00">y</text>
</g>
<!-- n23 -->
<g id="node24" class="node">
<title>n23</title>
<ellipse fill="none" stroke="black" cx="609.67" cy="-70.71" rx="23.85" ry="23.85"/>
<ellipse fill="none" stroke="black" cx="609.67" cy="-70.71" rx="27.85" ry="27.85"/>
<text text-anchor="middle" x="609.67" y="-66.04" font-family="Times,serif" font-size="14.00">23</text>
</g>
<!-- n20&#45;&gt;n23 -->
<g id="edge20" class="edge">
<title>n20&#45;&gt;n23</title>
<path fill="none" stroke="black" d="M637.47,-207.25C632.24,-181.56 623.8,-140.09 617.59,-109.58"/>
<polygon fill="black" stroke="black" points="621.05,-109.07 615.63,-99.97 614.19,-110.46 621.05,-109.07"/>
<text text-anchor="middle" x="623.78" y="-162.37" font-family="Times,serif" font-size="14.00">z</text>
</g>
<!-- n23&#45;&gt;n25 -->
<g id="edge22" class="edge">
<title>n23&#45;&gt;n25</title>
<path fill="none" stroke="black" d="M582.45,-63.34C556.76,-56.39 518.02,-45.9 489.3,-38.13"/>
<polygon fill="black" stroke="black" points="490.47,-34.82 479.91,-35.59 488.65,-41.58 490.47,-34.82"/>
<text text-anchor="middle" x="532.12" y="-54.69" font-family="Times,serif" font-size="14.00">ε</text>
</g>
<!-- n22 -->
<g id="node25" class="node">
<title>n22</title>
<ellipse fill="none" stroke="black" cx="543.85" cy="-523.85" rx="23.85" ry="23.85"/>
<text text-anchor="middle" x="543.85" y="-519.18" font-family="Times,serif" font-size="14.00">22</text>
</g>
<!-- n24 -->
<g id="node26" class="node">
<title>n24</title>
<ellipse fill="none" stroke="black" cx="371.29" cy="-438.49" rx="23.85" ry="23.85"/>
<text text-anchor="middle" x="371.29" y="-433.82" font-family="Times,serif" font-size="14.00">24</text>
</g>
<!-- n24&#45;&gt;n4 -->
<g id="edge25" class="edge">
<title>n24&#45;&gt;n4</title>
<path fill="none" stroke="black" d="M349.91,-426.99C318.45,-410.07 259.78,-378.52 225.82,-360.25"/>
<polygon fill="black" stroke="black" points="227.53,-357.2 217.06,-355.54 224.21,-363.36 227.53,-357.2"/>
<text text-anchor="middle" x="283.74" y="-397.57" font-family="Times,serif" font-size="14.00">a</text>
</g>
<!-- n24&#45;&gt;n14 -->
<g id="edge26" class="edge">
<title>n24&#45;&gt;n14</title>
<path fill="none" stroke="black" d="M357.18,-419.07C339.25,-394.36 308.14,-351.52 287.49,-323.07"/>
<polygon fill="black" stroke="black" points="290.51,-321.28 281.8,-315.24 284.85,-325.39 290.51,-321.28"/>
<text text-anchor="middle" x="317.83" y="-375.02" font-family="Times,serif" font-size="14.00">d</text>
</g>
<!-- n24&#45;&gt;n9 -->
<g id="edge23" class="edge">
<title>n24&#45;&gt;n9</title>
<path fill="none" stroke="black" d="M347.77,-432.81C331.38,-431.53 309.41,-431.4 291.93,-432.44"/>
<polygon fill="black" stroke="black" points="291.86,-428.93 282.17,-433.22 292.42,-435.91 291.86,-428.93"/>
<text text-anchor="middle" x="316.1" y="-436.58" font-family="Times,serif" font-size="14.00">ε</text>
</g>
<!-- n24&#45;&gt;n9 -->
<g id="edge27" class="edge">
<title>n24&#45;&gt;n9</title>
<path fill="none" stroke="black" d="M347.77,-444.17C331.38,-445.46 309.41,-445.59 291.93,-444.55"/>
<polygon fill="black" stroke="black" points="292.42,-441.08 282.17,-443.77 291.86,-448.06 292.42,-441.08"/>
<text text-anchor="middle" x="325.85" y="-448.31" font-family="Times,serif" font-size="14.00">w</text>
</g>
<!-- n24&#45;&gt;n19 -->
<g id="edge24" class="edge">
<title>n24&#45;&gt;n19</title>
<path fill="none" stroke="black" d="M395.32,-438.49C418.81,-438.49 454.84,-438.49 481.58,-438.49"/>
<polygon fill="black" stroke="black" points="481.25,-441.99 491.25,-438.49 481.25,-434.99 481.25,-441.99"/>
<text text-anchor="middle" x="434.7" y="-442.44" font-family="Times,serif" font-size="14.00">ε</text>
</g>
<!-- n24&#45;&gt;n21 -->
<g id="edge28" class="edge">
<title>n24&#45;&gt;n21</title>
<path fill="none" stroke="black" d="M392.19,-426.05C418.92,-410.13 465.38,-382.46 495.98,-364.24"/>
<polygon fill="black" stroke="black" points="497.6,-367.35 504.4,-359.23 494.02,-361.34 497.6,-367.35"/>
<text text-anchor="middle" x="439.96" y="-399.09" font-family="Times,serif" font-size="14.00">x</text>
</g>
<!-- n26 -->
<!-- n26&#45;&gt;n24 -->
<g id="edge29" class="edge">
<title>n26&#45;&gt;n24</title>
<path fill="none" stroke="black" d="M387.46,-579.23C384.51,-553.59 379.09,-506.37 375.34,-473.74"/>
<polygon fill="black" stroke="black" points="378.83,-473.49 374.22,-463.95 371.88,-474.29 378.83,-473.49"/>
</g>
</g>
</svg>
