<?xml version="1.0" encoding="UTF-8" standalone="no"?>
<!DOCTYPE svg PUBLIC "-//W3C//DTD SVG 1.1//EN"
 "http://www.w3.org/Graphics/SVG/1.1/DTD/svg11.dtd">
<!-- Generated by graphviz version 9.0.0 (0)
 -->
<!-- Title: RegEx Pages: 1 -->
<svg width="314pt" height="620pt"
 viewBox="0.00 0.00 314.00 620.00" xmlns="http://www.w3.org/2000/svg" xmlns:xlink="http://www.w3.org/1999/xlink">
<g id="graph0" class="graph" transform="scale(1 1) rotate(0) translate(4 616)">
<title>RegEx</title>
<polygon fill="white" stroke="none" points="-4,4 -4,-616 310,-616 310,4 -4,4"/>
<!-- n1 -->
<g id="node1" class="node">
<title>n1</title>
<ellipse fill="none" stroke="black" cx="171" cy="-594" rx="27" ry="18"/>
<text text-anchor="middle" x="171" y="-589.33" font-family="Times,serif" font-size="14.00">|</text>
</g>
<!-- n2 -->
<g id="node2" class="node">
<title>n2</title>
<ellipse fill="none" stroke="black" cx="135" cy="-522" rx="27" ry="18"/>
<text text-anchor="middle" x="135" y="-517.33" font-family="Times,serif" font-size="14.00"> </text>
</g>
<!-- n1&#45;&gt;n2 -->
<g id="edge1" class="edge">
<title>n1&#45;&gt;n2</title>
<path fill="none" stroke="black" d="M162.65,-576.76C158.42,-568.55 153.19,-558.37 148.42,-549.09"/>
<polygon fill="black" stroke="black" points="151.68,-547.79 144,-540.49 145.46,-550.99 151.68,-547.79"/>
</g>
<!-- n3 -->
<g id="node7" class="node">
<title>n3</title>
<ellipse fill="none" stroke="black" cx="207" cy="-522" rx="27" ry="18"/>
<text text-anchor="middle" x="207" y="-517.33" font-family="Times,serif" font-size="14.00"> </text>
</g>
<!-- n1&#45;&gt;n3 -->
<g id="edge6" class="edge">
<title>n1&#45;&gt;n3</title>
<path fill="none" stroke="black" d="M179.35,-576.76C183.58,-568.55 188.81,-558.37 193.58,-549.09"/>
<polygon fill="black" stroke="black" points="196.54,-550.99 198,-540.49 190.32,-547.79 196.54,-550.99"/>
</g>
<!-- n4 -->
<g id="node3" class="node">
<title>n4</title>
<ellipse fill="none" stroke="black" cx="63" cy="-450" rx="27" ry="18"/>
<text text-anchor="middle" x="63" y="-445.32" font-family="Times,serif" font-size="14.00"> </text>
</g>
<!-- n2&#45;&gt;n4 -->
<g id="edge2" class="edge">
<title>n2&#45;&gt;n4</title>
<path fill="none" stroke="black" d="M120.08,-506.5C110.23,-496.92 97.14,-484.19 85.97,-473.34"/>
<polygon fill="black" stroke="black" points="88.59,-471 78.98,-466.54 83.71,-476.02 88.59,-471"/>
</g>
<!-- n5 -->
<g id="node6" class="node">
<title>n5</title>
<ellipse fill="none" stroke="black" cx="135" cy="-450" rx="27" ry="18"/>
<text text-anchor="middle" x="135" y="-445.32" font-family="Times,serif" font-size="14.00">z</text>
</g>
<!-- n2&#45;&gt;n5 -->
<g id="edge5" class="edge">
<title>n2&#45;&gt;n5</title>
<path fill="none" stroke="black" d="M135,-503.7C135,-496.41 135,-487.73 135,-479.54"/>
<polygon fill="black" stroke="black" points="138.5,-479.62 135,-469.62 131.5,-479.62 138.5,-479.62"/>
</g>
<!-- n8 -->
<g id="node4" class="node">
<title>n8</title>
<ellipse fill="none" stroke="black" cx="27" cy="-378" rx="27" ry="18"/>
<text text-anchor="middle" x="27" y="-373.32" font-family="Times,serif" font-size="14.00">x</text>
</g>
<!-- n4&#45;&gt;n8 -->
<g id="edge3" class="edge">
<title>n4&#45;&gt;n8</title>
<path fill="none" stroke="black" d="M54.65,-432.76C50.42,-424.55 45.19,-414.37 40.42,-405.09"/>
<polygon fill="black" stroke="black" points="43.68,-403.79 36,-396.49 37.46,-406.99 43.68,-403.79"/>
</g>
<!-- n9 -->
<g id="node5" class="node">
<title>n9</title>
<ellipse fill="none" stroke="black" cx="99" cy="-378" rx="27" ry="18"/>
<text text-anchor="middle" x="99" y="-373.32" font-family="Times,serif" font-size="14.00">y</text>
</g>
<!-- n4&#45;&gt;n9 -->
<g id="edge4" class="edge">
<title>n4&#45;&gt;n9</title>
<path fill="none" stroke="black" d="M71.35,-432.76C75.58,-424.55 80.81,-414.37 85.58,-405.09"/>
<polygon fill="black" stroke="black" points="88.54,-406.99 90,-396.49 82.32,-403.79 88.54,-406.99"/>
</g>
<!-- n6 -->
<g id="node8" class="node">
<title>n6</title>
<ellipse fill="none" stroke="black" cx="207" cy="-450" rx="27" ry="18"/>
<text text-anchor="middle" x="207" y="-445.32" font-family="Times,serif" font-size="14.00"> </text>
</g>
<!-- n3&#45;&gt;n6 -->
<g id="edge7" class="edge">
<title>n3&#45;&gt;n6</title>
<path fill="none" stroke="black" d="M207,-503.7C207,-496.41 207,-487.73 207,-479.54"/>
<polygon fill="black" stroke="black" points="210.5,-479.62 207,-469.62 203.5,-479.62 210.5,-479.62"/>
</g>
<!-- n7 -->
<g id="node22" class="node">
<title>n7</title>
<ellipse fill="none" stroke="black" cx="279" cy="-450" rx="27" ry="18"/>
<text text-anchor="middle" x="279" y="-445.32" font-family="Times,serif" font-size="14.00">f</text>
</g>
<!-- n3&#45;&gt;n7 -->
<g id="edge21" class="edge">
<title>n3&#45;&gt;n7</title>
<path fill="none" stroke="black" d="M221.92,-506.5C231.77,-496.92 244.86,-484.19 256.03,-473.34"/>
<polygon fill="black" stroke="black" points="258.29,-476.02 263.02,-466.54 253.41,-471 258.29,-476.02"/>
</g>
<!-- n12 -->
<g id="node9" class="node">
<title>n12</title>
<ellipse fill="none" stroke="black" cx="189" cy="-378" rx="27" ry="18"/>
<text text-anchor="middle" x="189" y="-373.32" font-family="Times,serif" font-size="14.00"> </text>
</g>
<!-- n6&#45;&gt;n12 -->
<g id="edge8" class="edge">
<title>n6&#45;&gt;n12</title>
<path fill="none" stroke="black" d="M202.64,-432.05C200.7,-424.49 198.35,-415.37 196.16,-406.85"/>
<polygon fill="black" stroke="black" points="199.57,-406.07 193.69,-397.25 192.79,-407.81 199.57,-406.07"/>
</g>
<!-- n13 -->
<g id="node20" class="node">
<title>n13</title>
<ellipse fill="none" stroke="black" cx="261" cy="-378" rx="27" ry="18"/>
<text text-anchor="middle" x="261" y="-373.32" font-family="Times,serif" font-size="14.00">*</text>
</g>
<!-- n6&#45;&gt;n13 -->
<g id="edge19" class="edge">
<title>n6&#45;&gt;n13</title>
<path fill="none" stroke="black" d="M218.98,-433.46C225.77,-424.67 234.4,-413.48 242.08,-403.53"/>
<polygon fill="black" stroke="black" points="244.79,-405.75 248.12,-395.69 239.25,-401.47 244.79,-405.75"/>
</g>
<!-- n24 -->
<g id="node10" class="node">
<title>n24</title>
<ellipse fill="none" stroke="black" cx="117" cy="-306" rx="27" ry="18"/>
<text text-anchor="middle" x="117" y="-301.32" font-family="Times,serif" font-size="14.00"> </text>
</g>
<!-- n12&#45;&gt;n24 -->
<g id="edge9" class="edge">
<title>n12&#45;&gt;n24</title>
<path fill="none" stroke="black" d="M174.08,-362.5C164.23,-352.92 151.14,-340.19 139.97,-329.34"/>
<polygon fill="black" stroke="black" points="142.59,-327 132.98,-322.54 137.71,-332.02 142.59,-327"/>
</g>
<!-- n25 -->
<g id="node19" class="node">
<title>n25</title>
<ellipse fill="none" stroke="black" cx="189" cy="-306" rx="27" ry="18"/>
<text text-anchor="middle" x="189" y="-301.32" font-family="Times,serif" font-size="14.00">d</text>
</g>
<!-- n12&#45;&gt;n25 -->
<g id="edge18" class="edge">
<title>n12&#45;&gt;n25</title>
<path fill="none" stroke="black" d="M189,-359.7C189,-352.41 189,-343.73 189,-335.54"/>
<polygon fill="black" stroke="black" points="192.5,-335.62 189,-325.62 185.5,-335.62 192.5,-335.62"/>
</g>
<!-- n48 -->
<g id="node11" class="node">
<title>n48</title>
<ellipse fill="none" stroke="black" cx="81" cy="-234" rx="27" ry="18"/>
<text text-anchor="middle" x="81" y="-229.32" font-family="Times,serif" font-size="14.00">*</text>
</g>
<!-- n24&#45;&gt;n48 -->
<g id="edge10" class="edge">
<title>n24&#45;&gt;n48</title>
<path fill="none" stroke="black" d="M108.65,-288.76C104.42,-280.55 99.19,-270.37 94.42,-261.09"/>
<polygon fill="black" stroke="black" points="97.68,-259.79 90,-252.49 91.46,-262.99 97.68,-259.79"/>
</g>
<!-- n49 -->
<g id="node13" class="node">
<title>n49</title>
<ellipse fill="none" stroke="black" cx="153" cy="-234" rx="27" ry="18"/>
<text text-anchor="middle" x="153" y="-229.32" font-family="Times,serif" font-size="14.00">*</text>
</g>
<!-- n24&#45;&gt;n49 -->
<g id="edge12" class="edge">
<title>n24&#45;&gt;n49</title>
<path fill="none" stroke="black" d="M125.35,-288.76C129.58,-280.55 134.81,-270.37 139.58,-261.09"/>
<polygon fill="black" stroke="black" points="142.54,-262.99 144,-252.49 136.32,-259.79 142.54,-262.99"/>
</g>
<!-- n96 -->
<g id="node12" class="node">
<title>n96</title>
<ellipse fill="none" stroke="black" cx="81" cy="-162" rx="27" ry="18"/>
<text text-anchor="middle" x="81" y="-157.32" font-family="Times,serif" font-size="14.00">w</text>
</g>
<!-- n48&#45;&gt;n96 -->
<g id="edge11" class="edge">
<title>n48&#45;&gt;n96</title>
<path fill="none" stroke="black" d="M81,-215.7C81,-208.41 81,-199.73 81,-191.54"/>
<polygon fill="black" stroke="black" points="84.5,-191.62 81,-181.62 77.5,-191.62 84.5,-191.62"/>
</g>
<!-- n98 -->
<g id="node14" class="node">
<title>n98</title>
<ellipse fill="none" stroke="black" cx="153" cy="-162" rx="27" ry="18"/>
<text text-anchor="middle" x="153" y="-157.32" font-family="Times,serif" font-size="14.00"> </text>
</g>
<!-- n49&#45;&gt;n98 -->
<g id="edge13" class="edge">
<title>n49&#45;&gt;n98</title>
<path fill="none" stroke="black" d="M153,-215.7C153,-208.41 153,-199.73 153,-191.54"/>
<polygon fill="black" stroke="black" points="156.5,-191.62 153,-181.62 149.5,-191.62 156.5,-191.62"/>
</g>
<!-- n196 -->
<g id="node15" class="node">
<title>n196</title>
<ellipse fill="none" stroke="black" cx="117" cy="-90" rx="27" ry="18"/>
<text text-anchor="middle" x="117" y="-85.33" font-family="Times,serif" font-size="14.00"> </text>
</g>
<!-- n98&#45;&gt;n196 -->
<g id="edge14" class="edge">
<title>n98&#45;&gt;n196</title>
<path fill="none" stroke="black" d="M144.65,-144.76C140.42,-136.55 135.19,-126.37 130.42,-117.09"/>
<polygon fill="black" stroke="black" points="133.68,-115.79 126,-108.49 127.46,-118.99 133.68,-115.79"/>
</g>
<!-- n197 -->
<g id="node18" class="node">
<title>n197</title>
<ellipse fill="none" stroke="black" cx="189" cy="-90" rx="27" ry="18"/>
<text text-anchor="middle" x="189" y="-85.33" font-family="Times,serif" font-size="14.00">c</text>
</g>
<!-- n98&#45;&gt;n197 -->
<g id="edge17" class="edge">
<title>n98&#45;&gt;n197</title>
<path fill="none" stroke="black" d="M161.35,-144.76C165.58,-136.55 170.81,-126.37 175.58,-117.09"/>
<polygon fill="black" stroke="black" points="178.54,-118.99 180,-108.49 172.32,-115.79 178.54,-118.99"/>
</g>
<!-- n392 -->
<g id="node16" class="node">
<title>n392</title>
<ellipse fill="none" stroke="black" cx="81" cy="-18" rx="27" ry="18"/>
<text text-anchor="middle" x="81" y="-13.32" font-family="Times,serif" font-size="14.00">a</text>
</g>
<!-- n196&#45;&gt;n392 -->
<g id="edge15" class="edge">
<title>n196&#45;&gt;n392</title>
<path fill="none" stroke="black" d="M108.65,-72.76C104.42,-64.55 99.19,-54.37 94.42,-45.09"/>
<polygon fill="black" stroke="black" points="97.68,-43.79 90,-36.49 91.46,-46.99 97.68,-43.79"/>
</g>
<!-- n393 -->
<g id="node17" class="node">
<title>n393</title>
<ellipse fill="none" stroke="black" cx="153" cy="-18" rx="27" ry="18"/>
<text text-anchor="middle" x="153" y="-13.32" font-family="Times,serif" font-size="14.00">b</text>
</g>
<!-- n196&#45;&gt;n393 -->
<g id="edge16" class="edge">
<title>n196&#45;&gt;n393</title>
<path fill="none" stroke="black" d="M125.35,-72.76C129.58,-64.55 134.81,-54.37 139.58,-45.09"/>
<polygon fill="black" stroke="black" points="142.54,-46.99 144,-36.49 136.32,-43.79 142.54,-46.99"/>
</g>
<!-- n26 -->
<g id="node21" class="node">
<title>n26</title>
<ellipse fill="none" stroke="black" cx="261" cy="-306" rx="27" ry="18"/>
<text text-anchor="middle" x="261" y="-301.32" font-family="Times,serif" font-size="14.00">e</text>
</g>
<!-- n13&#45;&gt;n26 -->
<g id="edge20" class="edge">
<title>n13&#45;&gt;n26</title>
<path fill="none" stroke="black" d="M261,-359.7C261,-352.41 261,-343.73 261,-335.54"/>
<polygon fill="black" stroke="black" points="264.5,-335.62 261,-325.62 257.5,-335.62 264.5,-335.62"/>
</g>
</g>
</svg>
