<?xml version="1.0" encoding="UTF-8" standalone="no"?>
<!DOCTYPE svg PUBLIC "-//W3C//DTD SVG 1.1//EN"
 "http://www.w3.org/Graphics/SVG/1.1/DTD/svg11.dtd">
<!-- Generated by graphviz version 9.0.0 (0)
 -->
<!-- Title: DFA Pages: 1 -->
<svg width="234pt" height="769pt"
 viewBox="0.00 0.00 234.00 769.45" xmlns="http://www.w3.org/2000/svg" xmlns:xlink="http://www.w3.org/1999/xlink">
<g id="graph0" class="graph" transform="scale(1 1) rotate(0) translate(4 765.45)">
<title>DFA</title>
<polygon fill="white" stroke="none" points="-4,4 -4,-765.45 230,-765.45 230,4 -4,4"/>
<!-- n0 -->
<g id="node1" class="node">
<title>n0</title>
<ellipse fill="none" stroke="black" cx="92" cy="-670.45" rx="18" ry="18"/>
<text text-anchor="middle" x="92" y="-665.78" font-family="Times,serif" font-size="14.00">0</text>
</g>
<!-- n1 -->
<g id="node2" class="node">
<title>n1</title>
<ellipse fill="none" stroke="black" cx="81" cy="-491.95" rx="18" ry="18"/>
<text text-anchor="middle" x="81" y="-487.28" font-family="Times,serif" font-size="14.00">1</text>
</g>
<!-- n0&#45;&gt;n1 -->
<g id="edge1" class="edge">
<title>n0&#45;&gt;n1</title>
<path fill="none" stroke="black" d="M89.89,-652.16C88.23,-637.95 86,-617.3 84.75,-599.2 82.93,-572.91 81.98,-542.9 81.48,-521.49"/>
<polygon fill="black" stroke="black" points="84.99,-521.71 81.28,-511.78 77.99,-521.85 84.99,-521.71"/>
<text text-anchor="middle" x="89.12" y="-576.53" font-family="Times,serif" font-size="14.00">a</text>
</g>
<!-- n2 -->
<g id="node3" class="node">
<title>n2</title>
<ellipse fill="none" stroke="black" cx="71" cy="-204.5" rx="18" ry="18"/>
<text text-anchor="middle" x="71" y="-199.82" font-family="Times,serif" font-size="14.00">2</text>
</g>
<!-- n0&#45;&gt;n2 -->
<g id="edge2" class="edge">
<title>n0&#45;&gt;n2</title>
<path fill="none" stroke="black" d="M75.55,-662.82C49.09,-650.95 0,-623.36 0,-582.2 0,-582.2 0,-582.2 0,-298.6 0,-266.69 26.69,-238.91 47.34,-222.2"/>
<polygon fill="black" stroke="black" points="49.29,-225.11 55.09,-216.24 45.03,-219.56 49.29,-225.11"/>
<text text-anchor="middle" x="4.5" y="-442.65" font-family="Times,serif" font-size="14.00">d</text>
</g>
<!-- n3 -->
<g id="node4" class="node">
<title>n3</title>
<ellipse fill="none" stroke="black" cx="120" cy="-581.2" rx="18" ry="18"/>
<text text-anchor="middle" x="120" y="-576.53" font-family="Times,serif" font-size="14.00">3</text>
</g>
<!-- n0&#45;&gt;n3 -->
<g id="edge3" class="edge">
<title>n0&#45;&gt;n3</title>
<path fill="none" stroke="black" d="M97.27,-653.04C101.19,-640.81 106.64,-623.83 111.22,-609.56"/>
<polygon fill="black" stroke="black" points="114.48,-610.87 114.2,-600.28 107.81,-608.73 114.48,-610.87"/>
<text text-anchor="middle" x="115" y="-621.15" font-family="Times,serif" font-size="14.00">w</text>
</g>
<!-- n4 -->
<g id="node5" class="node">
<title>n4</title>
<ellipse fill="none" stroke="black" cx="204" cy="-581.2" rx="18" ry="18"/>
<text text-anchor="middle" x="204" y="-576.53" font-family="Times,serif" font-size="14.00">4</text>
</g>
<!-- n0&#45;&gt;n4 -->
<g id="edge4" class="edge">
<title>n0&#45;&gt;n4</title>
<path fill="none" stroke="black" d="M105.73,-658.75C124.54,-644.1 158.56,-617.6 181.22,-599.95"/>
<polygon fill="black" stroke="black" points="183.22,-602.82 188.96,-593.92 178.92,-597.3 183.22,-602.82"/>
<text text-anchor="middle" x="163.12" y="-621.15" font-family="Times,serif" font-size="14.00">x</text>
</g>
<!-- n9 -->
<g id="node6" class="node">
<title>n9</title>
<ellipse fill="none" stroke="black" cx="90" cy="-398.7" rx="18" ry="18"/>
<text text-anchor="middle" x="90" y="-394.03" font-family="Times,serif" font-size="14.00">9</text>
</g>
<!-- n1&#45;&gt;n9 -->
<g id="edge5" class="edge">
<title>n1&#45;&gt;n9</title>
<path fill="none" stroke="black" d="M82.69,-473.79C83.95,-461 85.71,-443.24 87.18,-428.31"/>
<polygon fill="black" stroke="black" points="90.64,-428.9 88.14,-418.6 83.67,-428.21 90.64,-428.9"/>
<text text-anchor="middle" x="91.5" y="-442.65" font-family="Times,serif" font-size="14.00">b</text>
</g>
<!-- n7 -->
<g id="node7" class="node">
<title>n7</title>
<ellipse fill="none" stroke="black" cx="31" cy="-115.25" rx="18" ry="18"/>
<text text-anchor="middle" x="31" y="-110.58" font-family="Times,serif" font-size="14.00">7</text>
</g>
<!-- n2&#45;&gt;n7 -->
<g id="edge6" class="edge">
<title>n2&#45;&gt;n7</title>
<path fill="none" stroke="black" d="M63.85,-187.9C58.03,-175.2 49.68,-157 42.86,-142.13"/>
<polygon fill="black" stroke="black" points="46.2,-141.02 38.85,-133.38 39.84,-143.93 46.2,-141.02"/>
<text text-anchor="middle" x="59.12" y="-155.2" font-family="Times,serif" font-size="14.00">e</text>
</g>
<!-- n8 -->
<g id="node8" class="node">
<title>n8</title>
<ellipse fill="none" stroke="black" cx="71" cy="-22" rx="18" ry="18"/>
<ellipse fill="none" stroke="black" cx="71" cy="-22" rx="22" ry="22"/>
<text text-anchor="middle" x="71" y="-17.32" font-family="Times,serif" font-size="14.00">8</text>
</g>
<!-- n2&#45;&gt;n8 -->
<g id="edge7" class="edge">
<title>n2&#45;&gt;n8</title>
<path fill="none" stroke="black" d="M75.03,-186.59C78.18,-172.43 82.31,-151.65 84,-133.25 86.43,-106.73 82.45,-76.72 78.27,-54.72"/>
<polygon fill="black" stroke="black" points="81.76,-54.28 76.34,-45.18 74.9,-55.67 81.76,-54.28"/>
<text text-anchor="middle" x="87.62" y="-110.58" font-family="Times,serif" font-size="14.00">f</text>
</g>
<!-- n3&#45;&gt;n1 -->
<g id="edge8" class="edge">
<title>n3&#45;&gt;n1</title>
<path fill="none" stroke="black" d="M112.85,-564.2C107.24,-551.65 99.32,-533.93 92.78,-519.3"/>
<polygon fill="black" stroke="black" points="96,-517.94 88.73,-510.23 89.61,-520.79 96,-517.94"/>
<text text-anchor="middle" x="108.12" y="-531.9" font-family="Times,serif" font-size="14.00">a</text>
</g>
<!-- n3&#45;&gt;n2 -->
<g id="edge9" class="edge">
<title>n3&#45;&gt;n2</title>
<path fill="none" stroke="black" d="M127.2,-564.16C134.27,-546.93 144,-518.56 144,-492.95 144,-492.95 144,-492.95 144,-298.6 144,-266.18 116.25,-238.35 94.97,-221.77"/>
<polygon fill="black" stroke="black" points="97.11,-219 86.99,-215.87 92.95,-224.63 97.11,-219"/>
<text text-anchor="middle" x="148.5" y="-394.03" font-family="Times,serif" font-size="14.00">d</text>
</g>
<!-- n3&#45;&gt;n3 -->
<g id="edge10" class="edge">
<title>n3&#45;&gt;n3</title>
<path fill="none" stroke="black" d="M136.66,-589.04C146.62,-590.79 156,-588.17 156,-581.2 156,-577.06 152.69,-574.46 147.92,-573.39"/>
<polygon fill="black" stroke="black" points="148.19,-569.89 138.18,-573.36 148.17,-576.89 148.19,-569.89"/>
<text text-anchor="middle" x="162" y="-576.53" font-family="Times,serif" font-size="14.00">w</text>
</g>
<!-- n5 -->
<g id="node9" class="node">
<title>n5</title>
<ellipse fill="none" stroke="black" cx="204" cy="-491.95" rx="18" ry="18"/>
<text text-anchor="middle" x="204" y="-487.28" font-family="Times,serif" font-size="14.00">5</text>
</g>
<!-- n4&#45;&gt;n5 -->
<g id="edge11" class="edge">
<title>n4&#45;&gt;n5</title>
<path fill="none" stroke="black" d="M204,-562.96C204,-551.13 204,-535.15 204,-521.45"/>
<polygon fill="black" stroke="black" points="207.5,-521.67 204,-511.67 200.5,-521.67 207.5,-521.67"/>
<text text-anchor="middle" x="208.12" y="-531.9" font-family="Times,serif" font-size="14.00">y</text>
</g>
<!-- n10 -->
<g id="node11" class="node">
<title>n10</title>
<ellipse fill="none" stroke="black" cx="71" cy="-299.6" rx="23.85" ry="23.85"/>
<text text-anchor="middle" x="71" y="-294.93" font-family="Times,serif" font-size="14.00">10</text>
</g>
<!-- n9&#45;&gt;n10 -->
<g id="edge15" class="edge">
<title>n9&#45;&gt;n10</title>
<path fill="none" stroke="black" d="M86.69,-380.79C84.19,-368.02 80.68,-350.08 77.62,-334.41"/>
<polygon fill="black" stroke="black" points="81.13,-334.13 75.77,-324.99 74.26,-335.48 81.13,-334.13"/>
<text text-anchor="middle" x="86.75" y="-345.4" font-family="Times,serif" font-size="14.00">c</text>
</g>
<!-- n7&#45;&gt;n7 -->
<g id="edge13" class="edge">
<title>n7&#45;&gt;n7</title>
<path fill="none" stroke="black" d="M47.66,-123.09C57.62,-124.84 67,-122.22 67,-115.25 67,-111.11 63.69,-108.51 58.92,-107.44"/>
<polygon fill="black" stroke="black" points="59.19,-103.94 49.18,-107.41 59.17,-110.94 59.19,-103.94"/>
<text text-anchor="middle" x="71.12" y="-110.58" font-family="Times,serif" font-size="14.00">e</text>
</g>
<!-- n7&#45;&gt;n8 -->
<g id="edge14" class="edge">
<title>n7&#45;&gt;n8</title>
<path fill="none" stroke="black" d="M37.97,-98.36C43.44,-85.86 51.23,-68.11 57.86,-52.97"/>
<polygon fill="black" stroke="black" points="61.03,-54.47 61.84,-43.91 54.62,-51.66 61.03,-54.47"/>
<text text-anchor="middle" x="56.62" y="-65.95" font-family="Times,serif" font-size="14.00">f</text>
</g>
<!-- n6 -->
<g id="node10" class="node">
<title>n6</title>
<ellipse fill="none" stroke="black" cx="204" cy="-398.7" rx="18" ry="18"/>
<ellipse fill="none" stroke="black" cx="204" cy="-398.7" rx="22" ry="22"/>
<text text-anchor="middle" x="204" y="-394.03" font-family="Times,serif" font-size="14.00">6</text>
</g>
<!-- n5&#45;&gt;n6 -->
<g id="edge12" class="edge">
<title>n5&#45;&gt;n6</title>
<path fill="none" stroke="black" d="M204,-473.79C204,-462.09 204,-446.24 204,-432.2"/>
<polygon fill="black" stroke="black" points="207.5,-432.48 204,-422.48 200.5,-432.48 207.5,-432.48"/>
<text text-anchor="middle" x="207.75" y="-442.65" font-family="Times,serif" font-size="14.00">z</text>
</g>
<!-- n10&#45;&gt;n1 -->
<g id="edge16" class="edge">
<title>n10&#45;&gt;n1</title>
<path fill="none" stroke="black" d="M63.83,-322.83C57.01,-347.01 48.61,-386.74 54.75,-420.7 57.47,-435.76 63.23,-451.81 68.66,-464.75"/>
<polygon fill="black" stroke="black" points="65.43,-466.1 72.66,-473.85 71.84,-463.28 65.43,-466.1"/>
<text text-anchor="middle" x="59.12" y="-394.03" font-family="Times,serif" font-size="14.00">a</text>
</g>
<!-- n10&#45;&gt;n2 -->
<g id="edge17" class="edge">
<title>n10&#45;&gt;n2</title>
<path fill="none" stroke="black" d="M71,-275.59C71,-263.14 71,-247.64 71,-234.38"/>
<polygon fill="black" stroke="black" points="74.5,-234.51 71,-224.51 67.5,-234.51 74.5,-234.51"/>
<text text-anchor="middle" x="75.5" y="-244.45" font-family="Times,serif" font-size="14.00">d</text>
</g>
<!-- n11 -->
<!-- n11&#45;&gt;n0 -->
<g id="edge18" class="edge">
<title>n11&#45;&gt;n0</title>
<path fill="none" stroke="black" d="M92,-725.26C92,-717.68 92,-708.55 92,-699.99"/>
<polygon fill="black" stroke="black" points="95.5,-699.99 92,-689.99 88.5,-699.99 95.5,-699.99"/>
</g>
</g>
</svg>
